<svg width="1280" height="214" viewBox="0 0 1280 214" fill="none" xmlns="http://www.w3.org/2000/svg">
<g clip-path="url(#clip0_518_13484)">
<path d="M428.485 36.6146C434.676 34.4944 441.272 33.449 448.283 33.449C455.289 33.449 461.914 34.4944 468.135 36.6146C474.356 38.7347 479.728 41.5975 484.253 45.2125C488.777 48.8275 492.692 52.9897 496.021 57.699C499.346 62.4083 501.857 67.4155 503.524 72.7013C505.187 77.9822 506.006 83.2923 506.006 88.6269C506.006 93.9615 505.187 99.2668 503.524 104.553C501.857 109.833 499.346 114.816 496.021 119.53C492.692 124.24 488.777 128.402 484.253 132.012C479.728 135.627 474.356 138.495 468.135 140.61C461.914 142.73 455.289 143.8 448.283 143.8C441.272 143.8 434.676 142.73 428.485 140.61C422.293 138.495 416.92 135.627 412.367 132.012C407.813 128.402 403.869 124.24 400.54 119.53C397.215 114.816 394.733 109.833 393.066 104.553C391.403 99.2668 390.555 93.9615 390.555 88.6269C390.555 83.2923 391.403 77.9822 393.066 72.7013C394.733 67.4155 397.215 62.4083 400.54 57.699C403.869 52.9897 407.813 48.8275 412.367 45.2125C416.92 41.5975 422.293 38.7347 428.485 36.6146ZM853.397 92.1736C853.539 91.9342 853.69 91.6753 853.861 91.3871C854.992 89.4574 856.849 86.2869 858.726 83.7173C860.598 81.1526 862.49 79.1888 864.44 77.7574C866.39 76.331 868.394 75.437 870.797 75.0071C873.201 74.5821 875.999 74.626 878.242 74.9778C880.484 75.3344 882.171 76.0037 883.76 77.1175C885.35 78.2362 886.837 79.7994 887.768 81.4946C888.699 83.1849 889.07 85.0119 889.26 85.9254C889.445 86.8341 889.445 86.8341 889.445 86.8341C889.445 86.8341 889.445 86.8341 887.149 87.816C884.848 88.7979 880.25 90.7666 877.949 91.7486C875.653 92.7305 875.653 92.7305 875.653 92.7305C875.653 92.7305 875.653 92.7305 875.863 91.4994C876.072 90.2732 876.492 87.816 876.657 85.7251C876.818 83.6343 876.726 81.9001 876.384 80.6934C876.043 79.4868 875.453 78.8029 874.732 78.3974C874.01 77.9919 873.157 77.8649 872.167 77.948C871.182 78.031 870.061 78.329 868.828 78.8713C867.589 79.4184 866.234 80.2147 864.986 81.2308C863.738 82.2469 862.597 83.4877 861.5 84.8654C860.403 86.2479 859.35 87.7671 858.429 89.1252C857.507 90.4784 856.713 91.6704 855.616 93.5072C854.914 94.6845 854.085 96.1257 853.397 97.3323V143.751H840.298V86.6484L853.397 76.8146V92.1736ZM802.636 103.356C800.086 103.937 796.713 104.865 793.7 105.749C790.687 106.634 788.04 107.474 785.953 108.324C783.866 109.179 782.35 110.039 781.005 111.231C779.664 112.423 778.494 113.947 777.709 115.632C776.929 117.313 776.529 119.154 776.373 121.314C776.217 123.478 776.3 125.964 776.573 128.133C776.846 130.307 777.309 132.164 778.172 133.898C779.04 135.627 780.308 137.239 782.126 138.197C783.949 139.159 786.328 139.467 788.508 139.174C790.682 138.881 792.661 137.982 794.529 136.633C796.396 135.29 798.161 133.492 799.828 131.607C801.237 130.004 802.587 128.338 803.558 127.161C803.533 126.248 803.523 125.158 803.509 123.849C803.465 118.641 803.46 109.941 803.455 103.175C803.192 103.234 802.919 103.292 802.636 103.356ZM803.87 131.333C803.231 132.076 802.456 132.926 801.612 133.781C800.013 135.412 798.161 137.083 796.508 138.368C794.855 139.652 793.402 140.551 791.842 141.279C790.282 142.007 788.615 142.564 786.621 142.935C784.632 143.307 782.311 143.492 779.874 143.321C777.431 143.15 774.867 142.623 772.536 141.416C770.206 140.209 768.105 138.324 766.545 136.155C764.985 133.991 763.966 131.543 763.566 128.744C763.161 125.94 763.381 122.784 764.736 119.877C766.096 116.966 768.597 114.303 771.288 112.305C773.975 110.312 776.846 108.979 779.81 107.806C782.774 106.629 785.836 105.608 790.004 104.416C794.173 103.224 799.458 101.861 802.407 101.133C802.797 101.04 803.143 100.952 803.455 100.879V99.2619C803.455 92.3494 803.455 89.8971 803.187 87.6792C802.919 85.4565 802.383 83.4682 801.388 81.773C800.394 80.0779 798.946 78.6758 797 77.8063C795.06 76.9367 792.627 76.5997 790.468 76.5313C788.303 76.4629 786.411 76.668 784.856 77.0296C783.301 77.3911 782.082 77.9089 781.005 78.5586C779.927 79.2083 778.991 79.99 778.309 80.7178C777.626 81.4457 777.197 82.1199 776.812 82.9357C776.427 83.7515 776.081 84.7139 775.91 85.5004C775.739 86.2918 775.739 86.9122 774.989 86.0329C774.243 85.1585 772.741 82.7892 771.976 81.5776C771.21 80.3661 771.181 80.3173 771.201 80.2684C771.22 80.2244 771.293 80.1854 772.473 79.5552C773.658 78.9201 775.949 77.6939 777.992 76.8146C780.035 75.9304 781.838 75.393 783.788 75.0608C785.743 74.7238 787.85 74.5967 790.19 74.5821C792.525 74.5674 795.089 74.67 797.595 75.1927C800.101 75.7154 802.544 76.6583 804.694 77.9089C806.839 79.1595 808.691 80.7227 810.212 82.2958C811.729 83.8688 812.908 85.4565 813.942 87.2737C814.98 89.091 815.863 91.1379 816.306 93.2874C816.75 95.4417 816.75 97.7036 816.75 101.885C816.75 106.072 816.75 112.183 816.75 118.49C816.75 124.802 816.75 131.313 817.028 134.977C817.306 138.636 817.862 139.442 818.622 140.112C819.383 140.781 820.348 141.313 821.976 141.558C823.605 141.797 825.901 141.753 827.49 141.607C829.08 141.46 829.967 141.221 830.503 141.069C831.039 140.918 831.23 140.859 831.337 140.825C831.444 140.796 831.468 140.786 831.483 140.8C831.498 140.81 831.498 140.844 831.498 141.167C831.498 141.484 831.498 142.095 831.498 142.447C831.498 142.803 831.498 142.901 831.483 142.955C831.468 143.004 831.439 143.009 831.39 143.013C831.342 143.018 831.264 143.028 830.206 143.145C829.143 143.263 827.095 143.492 825.214 143.565C823.332 143.644 821.611 143.561 819.802 143.311C817.998 143.067 816.102 142.652 814.069 141.802C812.041 140.957 809.881 139.672 808.145 138.05C806.405 136.428 805.093 134.464 804.382 132.891C804.157 132.388 803.992 131.929 803.87 131.333ZM654.501 117.488C654.501 120.019 654.506 122.515 654.662 124.684C654.823 126.858 655.14 128.7 655.998 130.727C656.851 132.755 658.241 134.963 659.957 136.702C661.668 138.441 663.711 139.711 665.598 140.688C667.484 141.67 669.215 142.354 671.072 142.803C672.93 143.258 674.919 143.468 677.493 143.507C680.067 143.551 683.227 143.414 685.962 142.647C688.692 141.885 691.003 140.483 692.826 139.11C694.649 137.733 695.99 136.384 697.257 135.007C698.52 133.624 699.715 132.212 700.807 130.468C701.392 129.53 701.952 128.5 702.464 127.479V143.751H715.569V76.8146L702.464 86.6484V122.188C702.284 122.613 702.094 123.053 701.884 123.507C700.938 125.583 699.685 127.953 698.208 130.019C696.736 132.085 695.044 133.844 693.518 135.207C691.992 136.575 690.637 137.552 689.082 138.324C687.526 139.1 685.771 139.672 683.665 140.019C681.564 140.366 679.112 140.488 676.908 139.794C674.7 139.096 672.74 137.581 671.331 135.989C669.922 134.391 669.064 132.711 668.45 130.893C667.84 129.071 667.47 127.107 667.372 124.846C667.27 122.589 667.436 120.039 667.523 117.933L667.538 117.488H667.606V112.936V112.173V76.8146L654.501 86.6484V116.746V116.868V116.985V117.103V117.225V117.342V117.459V117.488ZM748.097 31.3777L734.997 41.2115V143.614H748.097V31.3777ZM577.585 76.8293C577.58 77.4252 577.58 78.2997 577.58 79.5796C577.58 83.4487 577.58 91.0549 577.58 94.8702C577.58 98.6904 577.58 98.7148 577.58 98.7343C577.58 98.749 577.58 98.7539 577.585 98.7588C577.594 98.7636 577.609 98.7636 577.619 98.7636C577.633 98.7636 577.643 98.7636 577.911 98.7636C578.179 98.7636 578.706 98.7636 578.998 98.7636C579.286 98.7636 579.34 98.7636 579.369 98.7588C579.393 98.7539 579.393 98.749 579.393 98.7392C579.393 98.7295 579.393 98.7197 579.393 97.3763C579.393 96.0328 579.393 93.3607 579.622 90.8155C579.852 88.2703 580.305 85.8473 581.017 83.9079C581.729 81.9733 582.699 80.5176 583.893 79.4184C585.088 78.3192 586.511 77.5718 588.081 77.0198C588.276 76.9514 588.471 76.8879 588.666 76.8293H616.626L577.185 143.746H589.778H592.464H634.63H635.907H638.745V141.748H638.74C638.75 140.952 638.754 139.794 638.759 138.094C638.769 133.106 638.789 123.473 638.798 118.646C638.808 113.825 638.808 113.815 638.779 113.81C638.745 113.81 638.681 113.81 638.423 113.815C638.16 113.815 637.706 113.815 637.438 113.815C637.175 113.815 637.092 113.815 637.053 113.849C637.014 113.883 637.014 113.952 637.014 115.319C637.014 116.687 637.014 119.36 636.76 122.471C636.507 125.583 636.005 129.135 635.215 131.787C634.425 134.435 633.353 136.184 631.832 137.488C630.315 138.793 628.355 139.657 625.669 140.292C622.988 140.928 619.575 141.338 616.367 141.543C613.408 141.729 610.624 141.743 609.025 141.748H608.947H608.869H608.791H608.718H608.65H608.577H608.513H608.445H608.382H608.323H593.644L633.084 74.8263H630.754H617.805H577.58V76.8293H577.585ZM534.634 92.1736C534.775 91.9342 534.926 91.6753 535.097 91.3871C536.228 89.4574 538.085 86.2869 539.962 83.7173C541.834 81.1526 543.726 79.1888 545.676 77.7574C547.626 76.331 549.635 75.437 552.033 75.0071C554.437 74.5821 557.235 74.626 559.478 74.9778C561.72 75.3344 563.407 76.0037 564.997 77.1175C566.586 78.2362 568.073 79.7994 569.004 81.4946C569.935 83.1849 570.311 85.0119 570.496 85.9254C570.681 86.8341 570.681 86.8341 570.681 86.8341C570.681 86.8341 570.681 86.8341 568.385 87.816C566.084 88.7979 561.486 90.7666 559.185 91.7486C556.889 92.7305 556.889 92.7305 556.889 92.7305C556.889 92.7305 556.889 92.7305 557.099 91.4994C557.308 90.2732 557.728 87.816 557.893 85.7251C558.054 83.6343 557.962 81.9001 557.62 80.6934C557.279 79.4868 556.689 78.8029 555.968 78.3974C555.246 77.9919 554.393 77.8649 553.403 77.948C552.418 78.031 551.297 78.329 550.064 78.8713C548.825 79.4184 547.475 80.2147 546.222 81.2308C544.974 82.2469 543.833 83.4877 542.736 84.8654C541.639 86.2479 540.586 87.7671 539.665 89.1252C538.743 90.4784 537.949 91.6704 536.852 93.5072C536.15 94.6845 535.321 96.1257 534.634 97.3323V143.751H521.534V86.6484L534.634 76.8146V92.1736ZM484.355 103.541C485.081 98.8418 485.442 93.8785 485.442 88.6269C485.442 83.3754 485.081 78.3876 484.355 73.6832C483.624 68.9837 482.366 64.377 480.577 59.868C478.787 55.3541 476.525 51.4899 473.781 48.2413C471.041 44.9975 467.491 42.3693 463.128 40.3908C458.765 38.4074 453.816 37.4304 448.283 37.4304C442.745 37.4304 437.821 38.4074 433.487 40.3908C429.152 42.3693 425.603 44.9975 422.834 48.2413C420.065 51.4899 417.774 55.3541 415.984 59.868C414.195 64.377 412.937 68.9837 412.211 73.6832C411.48 78.3876 411.119 83.3754 411.119 88.6269C411.119 93.8785 411.48 98.8418 412.211 103.541C412.937 108.246 414.195 112.852 415.984 117.361C417.774 121.87 420.065 125.764 422.834 129.008C425.603 132.256 429.152 134.855 433.487 136.839C437.821 138.817 442.745 139.819 448.283 139.819C453.816 139.819 458.765 138.817 463.128 136.839C467.491 134.855 471.041 132.256 473.781 129.008C476.525 125.764 478.787 121.87 480.577 117.361C482.366 112.852 483.624 108.246 484.355 103.541Z" fill="white" stroke="white" stroke-width="1.16031" stroke-miterlimit="22.9256"/>
<path fill-rule="evenodd" clip-rule="evenodd" d="M408.969 10.7183C412.947 9.32604 418.222 7.42083 423.463 5.81849C428.704 4.22104 433.906 2.92648 439.717 1.97387C445.533 1.02126 451.954 0.410616 458.394 0.303142C464.834 0.190784 471.294 0.586482 477.466 1.61237C483.638 2.63825 489.523 4.29432 496.197 6.97139C502.876 9.64846 510.335 13.3514 518.589 17.2009C526.843 21.0456 535.886 25.0367 544.428 28.2561C552.969 31.4754 561.004 33.9228 569.726 35.8965C578.447 37.8749 587.847 39.3845 598.309 40.3029C608.767 41.2213 620.287 41.5437 630.798 41.4167C641.314 41.2897 650.825 40.7181 660.995 39.5848C671.17 38.4514 682.008 36.7611 692.09 34.7094C701.25 32.8481 709.782 30.6938 714.769 29.409L710.479 36.8539L716.997 42.7455C712.917 43.7762 706.306 45.4079 698.403 47.0249C689.184 48.9154 678.2 50.7864 668.513 52.0419C658.826 53.3023 650.431 53.9471 640.739 54.3624C631.051 54.7776 620.072 54.9535 609.449 54.504C598.826 54.0546 588.564 52.975 578.213 51.1626C567.858 49.3453 557.416 46.7953 545.827 42.6233C534.239 38.4514 521.5 32.6625 511.861 28.2561C502.228 23.8545 495.695 20.8306 489.703 18.6372C483.711 16.4437 478.256 15.0808 472.211 14.3578C466.165 13.6396 459.525 13.5712 454.036 13.8204C448.546 14.0744 444.202 14.646 439.556 15.5302C434.91 16.4095 429.957 17.5966 424.253 19.6093C418.549 21.622 412.089 24.4652 408.857 25.8819L407.302 26.5707L413.235 16.263L405.639 11.8663C406.658 11.5244 407.755 11.1433 408.969 10.7183Z" fill="white"/>
<path d="M552.262 171.626C552.799 171.626 553.267 171.611 553.671 171.577C554.071 171.538 554.417 171.494 554.7 171.435V167.576C554.544 167.503 554.295 167.43 553.959 167.351C553.618 167.273 553.15 167.234 552.56 167.234C552.219 167.234 551.868 167.259 551.502 167.307C551.131 167.356 550.795 167.464 550.483 167.63C550.171 167.791 549.917 168.011 549.722 168.294C549.523 168.578 549.425 168.954 549.425 169.423C549.425 169.833 549.493 170.18 549.625 170.463C549.761 170.742 549.952 170.971 550.195 171.142C550.444 171.308 550.741 171.435 551.088 171.514C551.434 171.587 551.824 171.626 552.262 171.626ZM552.136 161.396C552.857 161.396 553.467 161.499 553.969 161.704C554.471 161.909 554.876 162.193 555.188 162.554C555.495 162.916 555.724 163.346 555.865 163.839C556.007 164.332 556.075 164.87 556.075 165.451V172.373C555.934 172.412 555.729 172.461 555.461 172.51C555.192 172.559 554.88 172.613 554.529 172.666C554.174 172.725 553.784 172.769 553.355 172.808C552.921 172.842 552.482 172.857 552.028 172.857C551.448 172.857 550.917 172.793 550.429 172.666C549.942 172.539 549.518 172.339 549.157 172.061C548.801 171.787 548.518 171.435 548.313 171.001C548.109 170.571 548.006 170.043 548.006 169.423C548.006 168.827 548.118 168.319 548.343 167.894C548.572 167.469 548.889 167.117 549.298 166.843C549.708 166.565 550.195 166.365 550.761 166.238C551.322 166.111 551.936 166.047 552.604 166.047C552.799 166.047 553.008 166.057 553.228 166.076C553.447 166.101 553.657 166.125 553.862 166.164C554.066 166.198 554.242 166.233 554.393 166.267C554.539 166.306 554.642 166.335 554.7 166.365V165.686C554.7 165.304 554.671 164.933 554.612 164.572C554.559 164.21 554.432 163.883 554.242 163.595C554.052 163.306 553.784 163.072 553.437 162.896C553.091 162.715 552.638 162.627 552.072 162.627C551.268 162.627 550.668 162.686 550.273 162.798C549.874 162.911 549.586 163.004 549.401 163.077L549.211 161.865C549.454 161.753 549.825 161.645 550.322 161.548C550.824 161.445 551.429 161.396 552.136 161.396ZM569.306 170.654C569.433 170.751 569.589 170.859 569.779 170.971C569.974 171.084 570.194 171.191 570.447 171.289C570.701 171.387 570.979 171.47 571.276 171.533C571.573 171.597 571.88 171.626 572.207 171.626C572.885 171.626 573.455 171.514 573.913 171.279C574.372 171.045 574.742 170.727 575.025 170.322C575.308 169.921 575.513 169.447 575.639 168.9C575.766 168.358 575.829 167.781 575.829 167.171C575.829 165.729 575.469 164.621 574.747 163.849C574.03 163.077 573.075 162.691 571.89 162.691C571.213 162.691 570.662 162.725 570.247 162.789C569.833 162.852 569.516 162.921 569.306 162.989V170.654ZM569.306 176.55H567.927V162.036C568.336 161.895 568.858 161.758 569.496 161.631C570.13 161.504 570.935 161.44 571.91 161.44C572.714 161.44 573.445 161.572 574.104 161.831C574.757 162.095 575.322 162.476 575.795 162.969C576.268 163.463 576.639 164.064 576.897 164.772C577.16 165.48 577.292 166.282 577.292 167.171C577.292 168.006 577.18 168.773 576.96 169.472C576.741 170.175 576.419 170.776 576 171.279C575.576 171.782 575.054 172.173 574.44 172.456C573.826 172.74 573.124 172.881 572.334 172.881C571.612 172.881 570.988 172.779 570.457 172.574C569.93 172.368 569.545 172.173 569.306 171.987V176.55ZM592.63 171.626C593.166 171.626 593.634 171.611 594.038 171.577C594.438 171.538 594.78 171.494 595.062 171.435V167.576C594.906 167.503 594.663 167.43 594.321 167.351C593.985 167.273 593.517 167.234 592.922 167.234C592.586 167.234 592.235 167.259 591.864 167.307C591.498 167.356 591.157 167.464 590.85 167.63C590.538 167.791 590.285 168.011 590.085 168.294C589.89 168.578 589.787 168.954 589.787 169.423C589.787 169.833 589.856 170.18 589.992 170.463C590.124 170.742 590.314 170.971 590.562 171.142C590.811 171.308 591.108 171.435 591.455 171.514C591.796 171.587 592.191 171.626 592.63 171.626ZM592.503 161.396C593.219 161.396 593.834 161.499 594.331 161.704C594.833 161.909 595.238 162.193 595.55 162.554C595.862 162.916 596.086 163.346 596.227 163.839C596.369 164.332 596.442 164.87 596.442 165.451V172.373C596.301 172.412 596.096 172.461 595.828 172.51C595.56 172.559 595.248 172.613 594.897 172.666C594.541 172.725 594.151 172.769 593.717 172.808C593.288 172.842 592.849 172.857 592.396 172.857C591.815 172.857 591.284 172.793 590.796 172.666C590.309 172.539 589.885 172.339 589.524 172.061C589.163 171.787 588.88 171.435 588.676 171.001C588.471 170.571 588.369 170.043 588.369 169.423C588.369 168.827 588.486 168.319 588.71 167.894C588.934 167.469 589.251 167.117 589.661 166.843C590.07 166.565 590.558 166.365 591.123 166.238C591.689 166.111 592.303 166.047 592.966 166.047C593.166 166.047 593.371 166.057 593.59 166.076C593.809 166.101 594.024 166.13 594.229 166.164C594.433 166.198 594.609 166.233 594.755 166.267C594.906 166.306 595.009 166.335 595.062 166.365V165.686C595.062 165.304 595.038 164.933 594.979 164.572C594.921 164.21 594.799 163.883 594.609 163.595C594.419 163.306 594.151 163.072 593.804 162.896C593.458 162.715 593 162.627 592.439 162.627C591.63 162.627 591.03 162.686 590.636 162.798C590.241 162.911 589.953 163.004 589.768 163.077L589.578 161.865C589.817 161.753 590.187 161.645 590.689 161.548C591.191 161.45 591.796 161.396 592.503 161.396ZM611.741 161.44C612.194 161.44 612.618 161.474 613.023 161.548C613.423 161.616 613.705 161.689 613.856 161.758L613.583 162.945C613.471 162.891 613.242 162.833 612.896 162.769C612.55 162.706 612.092 162.671 611.531 162.671C610.936 162.671 610.458 162.715 610.098 162.798C609.737 162.881 609.503 162.955 609.391 163.013V172.627H608.011V162.163C608.367 162.007 608.854 161.846 609.474 161.685C610.098 161.523 610.853 161.44 611.741 161.44ZM625.845 161.65H630.208V162.818H625.845V168.656C625.845 169.281 625.898 169.784 626.001 170.175C626.108 170.566 626.259 170.864 626.459 171.074C626.654 171.289 626.898 171.43 627.18 171.499C627.458 171.572 627.77 171.606 628.112 171.606C628.692 171.606 629.155 171.538 629.506 171.406C629.862 171.269 630.135 171.147 630.335 171.035L630.671 172.178C630.476 172.305 630.13 172.451 629.638 172.618C629.14 172.779 628.604 172.857 628.024 172.857C627.346 172.857 626.781 172.769 626.322 172.593C625.864 172.417 625.494 172.149 625.221 171.787C624.943 171.426 624.748 170.976 624.636 170.439C624.523 169.901 624.465 169.266 624.465 168.529V158.426L625.845 158.172V161.65ZM641.275 162.036C641.684 161.919 642.216 161.792 642.874 161.65C643.527 161.514 644.38 161.44 645.424 161.44C646.808 161.44 647.813 161.846 648.432 162.652C648.505 162.593 648.641 162.5 648.846 162.364C649.051 162.232 649.309 162.09 649.616 161.948C649.928 161.807 650.294 161.689 650.708 161.587C651.128 161.489 651.591 161.44 652.098 161.44C652.932 161.44 653.604 161.562 654.121 161.812C654.633 162.061 655.033 162.408 655.316 162.852C655.598 163.297 655.788 163.834 655.891 164.454C655.988 165.075 656.037 165.754 656.037 166.492V172.627H654.662V166.936C654.662 166.218 654.628 165.588 654.565 165.06C654.501 164.528 654.375 164.088 654.184 163.741C653.994 163.399 653.721 163.135 653.37 162.96C653.014 162.779 652.556 162.691 651.991 162.691C651.566 162.691 651.181 162.73 650.835 162.808C650.489 162.886 650.192 162.984 649.938 163.096C649.685 163.209 649.475 163.321 649.309 163.433C649.148 163.551 649.031 163.634 648.963 163.692C649.09 164.059 649.182 164.474 649.246 164.933C649.309 165.392 649.343 165.876 649.343 166.384V172.627H647.969V166.936C647.969 166.218 647.934 165.588 647.871 165.06C647.808 164.528 647.676 164.088 647.481 163.741C647.281 163.394 647.003 163.135 646.642 162.96C646.282 162.779 645.804 162.691 645.214 162.691C644.551 162.691 643.985 162.73 643.527 162.798C643.069 162.867 642.776 162.935 642.65 162.989V172.627H641.275V162.036ZM667.513 167.127C667.513 166.164 667.65 165.329 667.928 164.616C668.201 163.898 668.562 163.302 669.005 162.818C669.454 162.339 669.961 161.983 670.531 161.748C671.106 161.514 671.692 161.396 672.301 161.396C673.642 161.396 674.714 161.836 675.509 162.715C676.308 163.59 676.708 164.943 676.708 166.77C676.708 166.882 676.703 166.995 676.698 167.107C676.689 167.219 676.679 167.327 676.664 167.425H668.976C669.02 168.768 669.351 169.804 669.971 170.527C670.59 171.245 671.579 171.606 672.935 171.606C673.686 171.606 674.28 171.538 674.714 171.396C675.153 171.255 675.47 171.132 675.67 171.035L675.923 172.222C675.723 172.334 675.353 172.471 674.812 172.627C674.266 172.784 673.627 172.857 672.896 172.857C671.935 172.857 671.116 172.715 670.439 172.437C669.761 172.153 669.2 171.758 668.762 171.245C668.328 170.737 668.006 170.131 667.811 169.432C667.611 168.734 667.513 167.962 667.513 167.127ZM675.289 166.257C675.26 165.114 674.992 164.22 674.485 163.585C673.973 162.95 673.256 162.627 672.32 162.627C671.828 162.627 671.389 162.73 670.999 162.925C670.609 163.126 670.273 163.389 669.98 163.722C669.693 164.054 669.468 164.44 669.303 164.879C669.142 165.319 669.044 165.778 669.02 166.257H675.289ZM688.209 162.036C688.618 161.919 689.169 161.792 689.862 161.65C690.554 161.514 691.402 161.44 692.402 161.44C693.235 161.44 693.932 161.562 694.488 161.802C695.049 162.041 695.493 162.383 695.824 162.833C696.156 163.277 696.39 163.81 696.531 164.435C696.672 165.055 696.745 165.744 696.745 166.492V172.627H695.366V166.936C695.366 166.159 695.317 165.5 695.21 164.963C695.102 164.425 694.927 163.985 694.678 163.648C694.435 163.306 694.108 163.062 693.703 162.916C693.304 162.769 692.797 162.691 692.192 162.691C691.539 162.691 690.978 162.73 690.505 162.798C690.032 162.872 689.725 162.935 689.584 162.989V172.627H688.209V162.036ZM710.079 161.65H714.438V162.818H710.079V168.656C710.079 169.281 710.128 169.784 710.235 170.175C710.343 170.566 710.494 170.864 710.694 171.074C710.889 171.289 711.127 171.43 711.41 171.499C711.693 171.572 712.005 171.606 712.341 171.606C712.922 171.606 713.39 171.538 713.741 171.406C714.096 171.269 714.37 171.147 714.569 171.035L714.906 172.178C714.711 172.305 714.365 172.451 713.867 172.618C713.375 172.779 712.839 172.857 712.259 172.857C711.581 172.857 711.01 172.769 710.552 172.593C710.094 172.417 709.728 172.149 709.45 171.787C709.177 171.426 708.982 170.976 708.87 170.439C708.758 169.901 708.7 169.266 708.7 168.529V158.426L710.079 158.172V161.65ZM727.845 171.65C728.634 171.65 729.288 171.518 729.805 171.255C730.321 170.996 730.58 170.551 730.58 169.931C730.58 169.633 730.531 169.379 730.438 169.164C730.351 168.954 730.195 168.763 729.985 168.592C729.775 168.421 729.493 168.26 729.146 168.104C728.8 167.947 728.376 167.767 727.864 167.552C727.455 167.381 727.07 167.21 726.699 167.034C726.333 166.858 726.007 166.653 725.729 166.418C725.446 166.184 725.217 165.905 725.051 165.578C724.881 165.256 724.793 164.855 724.793 164.391C724.793 163.497 725.129 162.779 725.802 162.227C726.47 161.675 727.391 161.396 728.566 161.396C729.312 161.396 729.931 161.46 730.419 161.587C730.906 161.714 731.248 161.831 731.448 161.929L731.131 163.16C730.96 163.077 730.672 162.96 730.273 162.818C729.868 162.681 729.278 162.608 728.503 162.608C728.191 162.608 727.898 162.642 727.62 162.701C727.347 162.769 727.104 162.867 726.894 162.999C726.68 163.135 726.514 163.306 726.382 163.512C726.255 163.717 726.192 163.971 726.192 164.269C726.192 164.562 726.25 164.816 726.363 165.031C726.475 165.246 726.641 165.436 726.86 165.598C727.079 165.759 727.347 165.915 727.664 166.052C727.981 166.194 728.347 166.35 728.756 166.516C729.181 166.687 729.585 166.858 729.975 167.034C730.365 167.21 730.706 167.425 730.999 167.669C731.296 167.918 731.535 168.216 731.721 168.563C731.906 168.91 731.998 169.345 731.998 169.867C731.998 170.859 731.628 171.606 730.887 172.114C730.141 172.627 729.132 172.881 727.845 172.881C726.884 172.881 726.153 172.798 725.641 172.637C725.134 172.476 724.793 172.349 724.627 172.266L724.988 171.01C725.027 171.04 725.119 171.089 725.261 171.152C725.402 171.216 725.592 171.284 725.831 171.362C726.075 171.44 726.358 171.509 726.689 171.562C727.021 171.621 727.406 171.65 727.845 171.65Z" fill="white"/>
<path fill-rule="evenodd" clip-rule="evenodd" d="M577.585 199.857L570.988 206.306C575.971 207.068 584.507 208.343 593.668 209.442C603.75 210.658 614.588 211.655 624.758 212.329C634.932 212.998 644.444 213.335 654.955 213.414C665.471 213.487 676.991 213.296 687.448 212.754C697.911 212.212 707.31 211.318 716.032 210.145C724.749 208.978 732.788 207.532 741.33 205.627C749.871 203.721 758.91 201.357 767.164 199.081C775.418 196.804 782.882 194.616 789.556 193.028C796.23 191.445 802.114 190.468 808.286 189.857C814.459 189.252 820.918 189.017 827.358 189.086C833.804 189.149 840.224 189.511 846.036 190.072C851.852 190.634 857.054 191.401 862.295 192.349C867.531 193.297 874.185 194.708 876.784 195.246C879.382 195.788 879.1 195.724 880.118 195.925C878.076 193.497 876.033 191.064 874.98 189.804C873.927 188.548 873.864 188.465 873.834 188.421C873.8 188.382 873.8 188.382 874.853 187.42C875.906 186.457 878.012 184.533 880.118 182.608C879.1 182.403 879.382 182.466 876.784 181.929C874.185 181.391 867.531 179.975 862.295 179.032C857.054 178.084 851.852 177.317 846.036 176.751C840.224 176.189 833.804 175.827 827.358 175.764C820.918 175.7 814.459 175.935 808.286 176.54C802.114 177.146 796.23 178.123 789.556 179.711C782.882 181.294 775.418 183.487 767.164 185.764C758.91 188.04 749.871 190.4 741.33 192.305C732.788 194.21 724.749 195.656 716.032 196.829C707.31 197.996 697.911 198.89 687.448 199.432C676.991 199.975 665.471 200.165 654.955 200.092C644.444 200.019 634.932 199.677 624.758 199.007C614.588 198.338 603.75 197.337 593.668 196.125C584.507 195.021 575.971 193.746 570.988 192.989L577.585 199.857Z" fill="white" stroke="white" stroke-width="1.16031" stroke-miterlimit="22.9256"/>
</g>
<defs>
<clipPath id="clip0_518_13484">
<rect width="500" height="213.433" fill="white" transform="translate(390 0.283691)"/>
</clipPath>
</defs>
</svg>
