<svg width="120" height="120" viewBox="0 0 120 120" fill="none" xmlns="http://www.w3.org/2000/svg">
<g clip-path="url(#clip0_566_13603)">
<path d="M83.5294 56.6666C80.8268 56.6666 78.6274 58.91 78.6274 61.6666C78.6274 62.5865 79.3595 63.3332 80.2614 63.3332C81.1633 63.3332 81.8953 62.5865 81.8953 61.6666C81.8953 60.7482 82.6289 60 83.5292 60C84.4296 60 85.1631 60.7482 85.1631 61.6666C85.1631 62.5865 85.8952 63.3332 86.7971 63.3332C87.6989 63.3332 88.431 62.5865 88.431 61.6666C88.4314 58.91 86.232 56.6666 83.5294 56.6666Z" fill="#8A46CD"/>
<path d="M32.8759 65V71.6666C32.8759 72.5865 33.6079 73.3332 34.5098 73.3332C35.4117 73.3332 36.1437 72.5865 36.1437 71.6666V65C36.1437 64.0801 35.4117 63.3334 34.5098 63.3334C33.6079 63.3334 32.8759 64.0801 32.8759 65Z" fill="#8A46CD"/>
<path d="M40.8138 73.3166C40.8938 73.3283 40.9706 73.3332 41.0474 73.3332C41.848 73.3332 42.5457 72.7332 42.6635 71.9031L44.2974 60.2365C44.3447 59.8998 44.2892 59.5582 44.1421 59.2549C43.9281 58.8199 41.8432 55 34.5098 55C27.1764 55 25.0915 58.8199 24.8774 59.2551C24.7304 59.5584 24.6748 59.9 24.7221 60.2367L26.3561 71.9033C26.4836 72.8133 27.3169 73.4467 28.2058 73.3166C29.0979 73.1865 29.7189 72.3416 29.5914 71.4299L28.0505 60.4266C28.6567 59.7449 30.4084 58.3332 34.5096 58.3332C38.6338 58.3332 40.3822 59.76 40.9704 60.4199L39.428 71.4299C39.3007 72.3416 39.9215 73.1867 40.8138 73.3166Z" fill="#8A46CD"/>
<path d="M24.7059 103.333H16.5359V54.1666C16.5359 53.2467 15.8038 52.5 14.902 52.5C14.0001 52.5 13.268 53.2467 13.268 54.1666V105C13.268 105.92 14.0001 106.667 14.902 106.667H23.072V108.333C23.072 109.253 23.804 110 24.7059 110C25.6078 110 26.3398 109.253 26.3398 108.333V105C26.3398 104.08 25.6078 103.333 24.7059 103.333Z" fill="#8A46CD"/>
<path d="M86.7975 103.333H31.2418C30.3399 103.333 29.6078 104.08 29.6078 105C29.6078 105.92 30.3399 106.667 31.2418 106.667H86.7973C87.6992 106.667 88.4312 105.92 88.4312 105C88.4312 104.08 87.6993 103.333 86.7975 103.333Z" fill="#8A46CD"/>
<path d="M103.137 76.6666H21.4378C20.536 76.6666 19.8039 77.4133 19.8039 78.3332C19.8039 79.2531 20.536 79.9998 21.4378 79.9998H101.503V103.333H93.3333C92.4314 103.333 91.6994 104.08 91.6994 105V108.333C91.6994 109.253 92.4314 110 93.3333 110C94.2352 110 94.9673 109.253 94.9673 108.333V106.667H103.137C104.039 106.667 104.771 105.92 104.771 105V78.3334C104.771 77.4133 104.039 76.6666 103.137 76.6666Z" fill="#8A46CD"/>
<path d="M72.0916 71.6666C72.0916 72.5865 72.8236 73.3332 73.7255 73.3332C74.6274 73.3332 75.3594 72.5865 75.3594 71.6666C75.3594 70.7482 76.093 70 76.9933 70C77.8937 70 78.6272 70.7482 78.6272 71.6666C78.6272 72.5865 79.3593 73.3332 80.2612 73.3332C81.1631 73.3332 81.8951 72.5865 81.8951 71.6666C81.8951 68.91 79.6957 66.6666 76.9931 66.6666C74.2905 66.6666 72.0916 68.91 72.0916 71.6666Z" fill="#8A46CD"/>
<path d="M103.137 52.5C102.235 52.5 101.503 53.2467 101.503 54.1666V71.6666C101.503 72.5865 102.235 73.3332 103.137 73.3332C104.039 73.3332 104.771 72.5865 104.771 71.6666V54.1666C104.771 53.2467 104.039 52.5 103.137 52.5Z" fill="#8A46CD"/>
<path d="M99.8692 10H18.17C13.665 10 10 13.7383 10 18.3334V48.165C10 48.6668 10.2206 49.14 10.5997 49.4566C10.9804 49.7717 11.4788 49.9 11.9593 49.7982C14.5688 49.2582 16.7682 47.6699 18.1685 45.5182C19.9249 48.2182 22.9331 49.9998 26.34 49.9998C29.7453 49.9998 32.7518 48.2197 34.51 45.5215C36.2682 48.2197 39.2747 49.9998 42.68 49.9998C46.0853 49.9998 49.0918 48.2197 50.85 45.5215C52.6078 48.2199 55.6145 50 59.0196 50C62.4249 50 65.4314 48.2199 67.1896 45.5217C68.9478 48.2199 71.9543 50 75.3596 50C78.7647 50 81.7714 48.2199 83.5296 45.5217C85.2878 48.2199 88.2943 50 91.6996 50C95.1065 50 98.1147 48.2184 99.8711 45.5184C101.271 47.6701 103.471 49.2584 106.08 49.7984C106.562 49.9035 107.059 49.7734 107.44 49.4568C107.819 49.1402 108.04 48.6668 108.04 48.1652V18.3334C108.039 13.7383 104.374 10 99.8692 10ZM104.771 45.7732C102.799 44.6066 101.503 42.425 101.503 40V18.3334C101.503 17.4135 100.771 16.6668 99.8692 16.6668C98.9673 16.6668 98.2353 17.4135 98.2353 18.3334V40C98.2353 43.6768 95.3039 46.6666 91.6994 46.6666C88.0949 46.6666 85.1635 43.6766 85.1635 40V18.3334C85.1635 17.4135 84.4315 16.6668 83.5296 16.6668C82.6277 16.6668 81.8957 17.4135 81.8957 18.3334V40C81.8957 43.6768 78.9643 46.6666 75.3598 46.6666C71.7551 46.6666 68.8239 43.6766 68.8239 40V18.3334C68.8239 17.4135 68.0919 16.6668 67.19 16.6668C66.2881 16.6668 65.5561 17.4135 65.5561 18.3334V40C65.5561 43.6768 62.6247 46.6666 59.0202 46.6666C55.4155 46.6666 52.4843 43.6766 52.4843 40V18.3334C52.4843 17.4135 51.7523 16.6668 50.8504 16.6668C49.9485 16.6668 49.2165 17.4135 49.2165 18.3334V40C49.2165 43.6768 46.285 46.6666 42.6806 46.6666C39.0761 46.6666 36.1447 43.6766 36.1447 40V18.3334C36.1447 17.4135 35.4126 16.6668 34.5108 16.6668C33.6089 16.6668 32.8768 17.4135 32.8768 18.3334V40C32.8768 43.6768 29.9454 46.6666 26.341 46.6666C22.7363 46.6666 19.8051 43.6766 19.8051 40V18.3334C19.8051 17.4135 19.073 16.6668 18.1711 16.6668C17.2693 16.6668 16.5372 17.4135 16.5372 18.3334V40C16.5372 42.425 15.2415 44.6066 13.2692 45.7732V18.3334C13.2692 15.5768 15.4686 13.3334 18.1711 13.3334H99.8706C102.573 13.3334 104.773 15.5768 104.773 18.3334V45.7732H104.771Z" fill="#8A46CD"/>
<path d="M59.0196 71.6666C59.0196 72.5865 59.7516 73.3332 60.6535 73.3332C61.5554 73.3332 62.2874 72.5865 62.2874 71.6666C62.2874 70.7482 63.021 70 63.9214 70C64.8217 70 65.5553 70.7482 65.5553 71.6666C65.5553 72.5865 66.2873 73.3332 67.1892 73.3332C68.0911 73.3332 68.8231 72.5865 68.8231 71.6666C68.8231 68.91 66.6238 66.6666 63.9212 66.6666C61.2186 66.6666 59.0196 68.91 59.0196 71.6666Z" fill="#8A46CD"/>
<path d="M70.4574 56.6666C67.7549 56.6666 65.5555 58.91 65.5555 61.6666C65.5555 62.5865 66.2875 63.3332 67.1894 63.3332C68.0913 63.3332 68.8233 62.5865 68.8233 61.6666C68.8233 60.7482 69.5569 60 70.4573 60C71.3576 60 72.0912 60.7482 72.0912 61.6666C72.0912 62.5865 72.8232 63.3332 73.7251 63.3332C74.627 63.3332 75.359 62.5865 75.359 61.6666C75.3594 58.91 73.16 56.6666 70.4574 56.6666Z" fill="#8A46CD"/>
<path d="M85.1633 71.6666C85.1633 72.5865 85.8954 73.3332 86.7973 73.3332C87.6991 73.3332 88.4312 72.5865 88.4312 71.6666C88.4312 70.7482 89.1647 70 90.0651 70C90.9654 70 91.699 70.7482 91.699 71.6666C91.699 72.5865 92.4311 73.3332 93.3329 73.3332C94.2348 73.3332 94.9669 72.5865 94.9669 71.6666C94.9669 68.91 92.7675 66.6666 90.0649 66.6666C87.3623 66.6666 85.1633 68.91 85.1633 71.6666Z" fill="#8A46CD"/>
</g>
<defs>
<clipPath id="clip0_566_13603">
<rect width="98.0392" height="100" fill="white" transform="translate(10 10)"/>
</clipPath>
</defs>
</svg>
