<svg width="120" height="120" viewBox="0 0 120 120" fill="none" xmlns="http://www.w3.org/2000/svg">
<path d="M36.8462 61.6713H29.8012C28.9384 61.6713 28.2387 62.3708 28.2387 63.2338V73.802C28.2387 74.6649 28.9384 75.3645 29.8012 75.3645H36.8462C37.7092 75.3645 38.4087 74.6649 38.4087 73.802V63.2338C38.4087 62.3708 37.7092 61.6713 36.8462 61.6713ZM35.2837 72.2395H31.3637V64.7963H35.2837V72.2395Z" fill="#8A46CD"/>
<path d="M54.4603 61.6713H47.4145C46.5517 61.6713 45.852 62.3708 45.852 63.2338V73.802C45.852 74.6649 46.5517 75.3645 47.4145 75.3645H54.4603C55.3231 75.3645 56.0228 74.6649 56.0228 73.802V63.2338C56.0228 62.3708 55.3231 61.6713 54.4603 61.6713ZM52.8978 72.2395H48.977V64.7963H52.8978V72.2395Z" fill="#8A46CD"/>
<path d="M72.0734 61.6713H65.0286C64.1656 61.6713 63.4661 62.3708 63.4661 63.2338V73.802C63.4661 74.6649 64.1656 75.3645 65.0286 75.3645H72.0734C72.9364 75.3645 73.6359 74.6649 73.6359 73.802V63.2338C73.6359 62.3708 72.9364 61.6713 72.0734 61.6713ZM70.5109 72.2395H66.5911V64.7963H70.5109V72.2395Z" fill="#8A46CD"/>
<path d="M89.6875 61.6713H82.6417C81.7789 61.6713 81.0792 62.3708 81.0792 63.2338V73.802C81.0792 74.6649 81.7789 75.3645 82.6417 75.3645H89.6875C90.5503 75.3645 91.25 74.6649 91.25 73.802V63.2338C91.25 62.3708 90.5503 61.6713 89.6875 61.6713ZM88.125 72.2395H84.2042V64.7963H88.125V72.2395Z" fill="#8A46CD"/>
<path d="M108.438 104.455H100.625V52.8928C100.625 52.03 99.9253 51.3303 99.0625 51.3303H88.4981V40.4042C88.4981 40.3581 88.4758 40.3195 88.4717 40.2745C88.4619 40.1549 88.4389 40.0427 88.4023 39.9305C88.378 39.855 88.3544 39.7833 88.3192 39.7131C88.268 39.6108 88.2023 39.5219 88.1303 39.4328C88.0813 39.3727 88.0384 39.3117 87.9809 39.2595C87.897 39.1825 87.7984 39.1263 87.6978 39.0685C87.6291 39.0289 87.5676 38.9831 87.4928 38.9544C87.4741 38.947 87.4605 38.9322 87.4414 38.9258L60.3166 29.6392V26.4475C62.8473 26.8988 65.3423 27.1353 67.7881 27.1353C70.8544 27.1353 73.8466 26.7797 76.7397 26.0694C77.4384 25.8978 77.9298 25.2714 77.9298 24.5519V13.9838C77.9298 13.5297 77.7322 13.0988 77.3889 12.8019C77.0464 12.5052 76.5894 12.367 76.1416 12.438C69.9037 13.3489 64.145 13.3528 59.0264 12.4449C58.983 12.4369 58.9412 12.4544 58.8977 12.4502C58.848 12.4455 58.805 12.4213 58.7541 12.4213C58.6767 12.4213 58.6103 12.4544 58.5359 12.4653C58.44 12.4792 58.3494 12.4899 58.2578 12.5216C58.1302 12.5649 58.0202 12.6303 57.9098 12.7031C57.8591 12.7367 57.7973 12.747 57.75 12.7867C57.7334 12.8006 57.7273 12.8225 57.7116 12.837C57.5977 12.9403 57.5131 13.066 57.4339 13.1983C57.4025 13.2511 57.3573 13.2928 57.3323 13.3489C57.245 13.5439 57.1916 13.7564 57.1916 13.9838V24.5519V29.6392L30.0661 38.9258C30.047 38.9322 30.0334 38.947 30.0145 38.9544C29.9398 38.9831 29.8784 39.0289 29.8097 39.0685C29.7091 39.1263 29.6103 39.1825 29.5264 39.2595C29.4691 39.3117 29.4261 39.3727 29.3772 39.4328C29.305 39.5219 29.2394 39.6108 29.1883 39.7131C29.153 39.7833 29.1295 39.855 29.1052 39.9305C29.0684 40.0427 29.0456 40.1549 29.0358 40.2745C29.0317 40.3195 29.0094 40.3581 29.0094 40.4042V51.3303H20.9375C20.0745 51.3303 19.375 52.03 19.375 52.8928V104.455H11.5625C10.6995 104.455 10 105.154 10 106.018C10 106.882 10.6995 107.58 11.5625 107.58H20.9375H47.5H72.5H99.0625H108.438C109.3 107.58 110 106.882 110 106.018C110 105.154 109.3 104.455 108.438 104.455ZM32.1344 48.2053H85.3731V51.1717H32.1344V48.2053ZM85.3731 45.0803H32.1344V41.9667H85.3731V45.0803ZM74.8048 15.7689V23.3038C70.2134 24.2528 65.3512 24.246 60.3166 23.2794V15.8078C64.7759 16.4091 69.6352 16.3961 74.8048 15.7689ZM58.7541 32.408L77.5476 38.8417H39.9598L58.7541 32.408ZM49.0625 104.455V85.7053H58.4375V104.455H49.0625ZM61.5625 104.455V85.7053H70.9375V104.455H61.5625ZM74.0625 104.455V84.1428C74.0625 83.28 73.3628 82.5803 72.5 82.5803H47.5C46.637 82.5803 45.9375 83.28 45.9375 84.1428V104.455H22.5V54.4553H97.5V104.455H74.0625Z" fill="#8A46CD"/>
</svg>
