<svg width="120" height="120" viewBox="0 0 120 120" fill="none" xmlns="http://www.w3.org/2000/svg">
<path d="M104.557 32.8307H103.807C103.866 30.8383 102.919 28.97 101.117 27.7903C98.2496 25.9139 97.3201 24.1324 97.0922 23.5985V21.5412C98.201 21.3988 99.273 20.908 100.123 20.0584C100.785 19.3957 100.785 18.3211 100.123 17.6586C99.4599 16.9959 98.3853 16.9959 97.7228 17.6586C97.0047 18.3768 95.8361 18.3768 95.1177 17.6586C94.7695 17.3104 94.5779 16.8479 94.5779 16.3559C94.5779 15.8639 94.7695 15.4014 95.1177 15.0535C95.7804 14.3908 95.7804 13.3162 95.1177 12.6533C94.455 11.9908 93.3804 11.9906 92.7175 12.6533C91.7283 13.6426 91.1836 14.9574 91.1836 16.3561C91.1836 17.7545 91.7283 19.0695 92.7175 20.0586C93.0185 20.3596 93.3496 20.6106 93.698 20.8227V23.5987C93.4701 24.1328 92.54 25.9141 89.6701 27.7912C87.8707 28.9705 86.9244 30.8387 86.9824 32.8309H86.2333C85.296 32.8309 84.5363 33.5907 84.5363 34.528C84.5363 35.4653 85.296 36.225 86.2333 36.225H87.9214V71.8612H81.7962V66.6741C83.0884 63.5081 83.3958 60.0935 82.6529 57.0077C81.7822 53.3909 79.5374 50.311 76.1615 48.1012C67.7378 42.5883 64.0476 37.184 62.5556 34.3155C68.6378 34.1725 73.6954 29.5766 74.3798 23.5088C74.4638 22.7655 74.0511 22.0553 73.364 21.7598C72.6771 21.4641 71.8773 21.6531 71.3956 22.2252C70.1437 23.711 68.3157 24.5633 66.3802 24.5633C62.7681 24.5633 59.8296 21.6239 59.8296 18.0104C59.8296 16.0734 60.6815 14.2455 62.1667 12.9957C62.7392 12.5141 62.9286 11.7141 62.6331 11.027C62.3374 10.3395 61.6257 9.92793 60.8833 10.0109C54.7175 10.7088 50.068 15.9184 50.068 22.1287C50.068 27.2969 53.302 31.7215 57.8517 33.4934C57.062 35.2274 55.1923 38.5258 51.1745 42.3534C50.496 42.9999 50.4698 44.0743 51.1163 44.7528C51.7628 45.4317 52.8368 45.4575 53.5157 44.811C56.7962 41.6854 58.8013 38.8469 59.9993 36.7407C61.9466 40.1661 66.0347 45.5307 74.3027 50.9417C79.9884 54.6634 80.4548 60.3147 78.9099 64.7208H41.0915C40.2825 62.4087 40.1223 59.9882 40.6487 57.8028C41.3135 55.0421 43.06 52.6696 45.6999 50.9417C47.0729 50.0429 48.3928 49.1034 49.6231 48.1489C50.3635 47.5743 50.4983 46.5085 49.9239 45.7678C49.3491 45.0274 48.2833 44.8928 47.5428 45.4671C46.384 46.3661 45.1387 47.2524 43.8413 48.1016C40.4651 50.3116 38.22 53.3915 37.3493 57.0081C36.6065 60.0927 36.9129 63.5054 38.2043 66.6696V71.862H32.0791V36.2252H33.7694C34.7067 36.2252 35.4664 35.4655 35.4664 34.5282C35.4664 33.5909 34.7067 32.8311 33.7694 32.8311H33.0198C33.0786 30.8387 32.1315 28.9703 30.3293 27.7909C27.4621 25.9145 26.5324 24.133 26.3045 23.5989V21.4502C27.2295 21.2377 28.109 20.7776 28.8282 20.0584C29.4909 19.3957 29.4909 18.3211 28.8282 17.6582C28.1653 16.9955 27.0908 16.9957 26.428 17.6582C25.7098 18.3764 24.5408 18.3766 23.8229 17.6582C23.1047 16.9401 23.1045 15.7713 23.8229 15.0529C24.4856 14.3902 24.4856 13.3156 23.8229 12.6531C23.1602 11.9904 22.0856 11.9904 21.4231 12.6531C19.3817 14.6945 19.3817 18.0168 21.4231 20.0584C21.8666 20.502 22.3725 20.8432 22.9104 21.0938V23.5985C22.6824 24.1326 21.7526 25.9139 18.883 27.7907C17.0813 28.9705 16.1342 30.8383 16.1928 32.8309H15.4432C14.5059 32.8309 13.7461 33.5907 13.7461 34.528C13.7461 35.4653 14.5059 36.225 15.4432 36.225H17.1334V108.303C17.1334 109.24 17.8932 110 18.8305 110H101.172C102.109 110 102.869 109.24 102.869 108.303V43.769C102.869 42.8317 102.109 42.0719 101.172 42.0719C100.235 42.0719 99.475 42.8317 99.475 43.769V106.606H91.3156V36.2247H99.475V38.1118C99.475 39.0491 100.235 39.8088 101.172 39.8088C102.109 39.8088 102.869 39.0491 102.869 38.1118V36.2247H104.557C105.495 36.2247 106.254 35.4649 106.254 34.5276C106.254 33.5905 105.494 32.8307 104.557 32.8307ZM53.4618 22.128C53.4618 19.326 54.7725 16.8063 56.8427 15.1881C56.5751 16.0936 56.4352 17.0428 56.4352 18.0098C56.4352 23.4948 60.8966 27.9569 66.38 27.9569C67.3472 27.9569 68.2968 27.8168 69.2032 27.5487C67.5858 29.6174 65.0663 30.9278 62.2644 30.9278C57.4102 30.9278 53.4618 26.9801 53.4618 22.128ZM28.6846 106.606H20.5274V36.2249H28.6846V106.606ZM29.6201 32.8307H19.5912C19.5422 32.1471 19.7371 31.2879 20.7412 30.6307C22.5496 29.4477 23.7778 28.2582 24.6067 27.2338C25.435 28.2578 26.6623 29.4475 28.4696 30.6303C29.4741 31.2877 29.6694 32.1471 29.6201 32.8307ZM38.204 106.606H32.0787V75.255H38.204V106.606ZM78.4019 106.606H70.9778V100.111C70.9778 99.174 70.2181 98.4142 69.2808 98.4142C68.3435 98.4142 67.5837 99.174 67.5837 100.111V106.606H52.8917V91.4361C52.8917 87.6306 55.9876 84.5347 59.7931 84.5347H60.6823C64.4878 84.5347 67.5837 87.6306 67.5837 91.4361V94.4545C67.5837 95.3918 68.3435 96.1515 69.2808 96.1515C70.2181 96.1515 70.9778 95.3918 70.9778 94.4545V91.4361C70.9778 85.7591 66.3593 81.1406 60.6823 81.1406H59.7931C54.1161 81.1406 49.4975 85.7591 49.4975 91.4361V106.606H41.5983V68.1138H78.4021V106.606H78.4019ZM87.9212 106.606H81.796V75.255H87.9212V106.606ZM100.408 32.8307H90.3802C90.3316 32.1467 90.5267 31.2875 91.5291 30.6307C93.3375 29.4477 94.5656 28.2582 95.3945 27.2338C96.2228 28.2578 97.4502 29.4475 99.2578 30.6299C100.262 31.2877 100.458 32.1471 100.408 32.8307Z" fill="#8A46CD"/>
<path d="M95.3951 47.111C94.4578 47.111 93.698 47.8708 93.698 48.8081V54.2817C93.698 55.219 94.4578 55.9788 95.3951 55.9788C96.3324 55.9788 97.0921 55.219 97.0921 54.2817V48.8081C97.0921 47.8708 96.3324 47.111 95.3951 47.111Z" fill="#8A46CD"/>
<path d="M95.3951 67.5777C94.4578 67.5777 93.698 68.3374 93.698 69.2747V74.7484C93.698 75.6857 94.4578 76.4454 95.3951 76.4454C96.3324 76.4454 97.0921 75.6857 97.0921 74.7484V69.2747C97.0921 68.3374 96.3324 67.5777 95.3951 67.5777Z" fill="#8A46CD"/>
<path d="M24.607 47.111C23.6697 47.111 22.91 47.8708 22.91 48.8081V54.2817C22.91 55.219 23.6697 55.9788 24.607 55.9788C25.5444 55.9788 26.3041 55.219 26.3041 54.2817V48.8081C26.3041 47.8708 25.5444 47.111 24.607 47.111Z" fill="#8A46CD"/>
<path d="M24.607 67.5777C23.6697 67.5777 22.91 68.3374 22.91 69.2747V74.7484C22.91 75.6857 23.6697 76.4454 24.607 76.4454C25.5444 76.4454 26.3041 75.6857 26.3041 74.7484V69.2747C26.3041 68.3374 25.5444 67.5777 24.607 67.5777Z" fill="#8A46CD"/>
</svg>
