<svg width="32" height="32" viewBox="0 0 32 32" fill="none" xmlns="http://www.w3.org/2000/svg">
<path fill-rule="evenodd" clip-rule="evenodd" d="M15.5478 27.8232C9.64643 22.3758 6.66666 17.5623 6.66666 13.3333C6.66666 8.17868 10.8453 4 16 4C21.1546 4 25.3333 8.17868 25.3333 13.3333C25.3333 17.5623 22.3535 22.3758 16.4522 27.8232C16.1968 28.0589 15.8032 28.0589 15.5478 27.8232ZM10.6667 13.3333C10.6667 16.2789 13.0545 18.6667 16 18.6667C18.9455 18.6667 21.3333 16.2789 21.3333 13.3333C21.3333 10.3878 18.9455 8 16 8C13.0545 8 10.6667 10.3878 10.6667 13.3333ZM20 13.3333C20 15.5425 18.2091 17.3333 16 17.3333C13.7909 17.3333 12 15.5425 12 13.3333C12 11.1242 13.7909 9.33333 16 9.33333C18.2091 9.33333 20 11.1242 20 13.3333ZM16 5.33333C20.4183 5.33333 24 8.91506 24 13.3333C24 17.0024 21.3512 21.3805 16 26.4218C10.6488 21.3805 7.99999 17.0024 7.99999 13.3333C7.99999 8.91506 11.5817 5.33333 16 5.33333Z" fill="#9A51E3"/>
<path d="M15.5478 27.8232L15.7174 27.6395H15.7174L15.5478 27.8232ZM16.4522 27.8232L16.2826 27.6395L16.4522 27.8232ZM16 26.4218L15.8286 26.6038L16 26.7653L16.1714 26.6038L16 26.4218ZM6.41666 13.3333C6.41666 17.6743 9.46828 22.5516 15.3782 28.0069L15.7174 27.6395C9.82458 22.2 6.91666 17.4503 6.91666 13.3333H6.41666ZM16 3.75C10.7073 3.75 6.41666 8.0406 6.41666 13.3333H6.91666C6.91666 8.31675 10.9834 4.25 16 4.25V3.75ZM25.5833 13.3333C25.5833 8.0406 21.2927 3.75 16 3.75V4.25C21.0166 4.25 25.0833 8.31675 25.0833 13.3333H25.5833ZM16.6217 28.0069C22.5317 22.5516 25.5833 17.6743 25.5833 13.3333H25.0833C25.0833 17.4503 22.1754 22.2 16.2826 27.6395L16.6217 28.0069ZM15.3782 28.0069C15.7294 28.331 16.2706 28.331 16.6217 28.0069L16.2826 27.6395C16.123 27.7868 15.877 27.7868 15.7174 27.6395L15.3782 28.0069ZM16 18.4167C13.1925 18.4167 10.9167 16.1408 10.9167 13.3333H10.4167C10.4167 16.4169 12.9164 18.9167 16 18.9167V18.4167ZM21.0833 13.3333C21.0833 16.1408 18.8074 18.4167 16 18.4167V18.9167C19.0836 18.9167 21.5833 16.4169 21.5833 13.3333H21.0833ZM16 8.25C18.8074 8.25 21.0833 10.5259 21.0833 13.3333H21.5833C21.5833 10.2497 19.0836 7.75 16 7.75V8.25ZM10.9167 13.3333C10.9167 10.5259 13.1925 8.25 16 8.25V7.75C12.9164 7.75 10.4167 10.2497 10.4167 13.3333H10.9167ZM16 17.5833C18.3472 17.5833 20.25 15.6805 20.25 13.3333H19.75C19.75 15.4044 18.0711 17.0833 16 17.0833V17.5833ZM11.75 13.3333C11.75 15.6805 13.6528 17.5833 16 17.5833V17.0833C13.9289 17.0833 12.25 15.4044 12.25 13.3333H11.75ZM16 9.08333C13.6528 9.08333 11.75 10.9861 11.75 13.3333H12.25C12.25 11.2623 13.9289 9.58333 16 9.58333V9.08333ZM20.25 13.3333C20.25 10.9861 18.3472 9.08333 16 9.08333V9.58333C18.0711 9.58333 19.75 11.2623 19.75 13.3333H20.25ZM24.25 13.3333C24.25 8.77698 20.5563 5.08333 16 5.08333V5.58333C20.2802 5.58333 23.75 9.05313 23.75 13.3333H24.25ZM16.1714 26.6038C21.5299 21.5555 24.25 17.1138 24.25 13.3333H23.75C23.75 16.8911 21.1724 21.2054 15.8286 26.2399L16.1714 26.6038ZM7.74999 13.3333C7.74999 17.1138 10.4701 21.5555 15.8286 26.6038L16.1714 26.2399C10.8275 21.2054 8.24999 16.8911 8.24999 13.3333H7.74999ZM16 5.08333C11.4436 5.08333 7.74999 8.77698 7.74999 13.3333H8.24999C8.24999 9.05313 11.7198 5.58333 16 5.58333V5.08333Z" fill="#9A51E3"/>
</svg>
