<svg width="120" height="120" viewBox="0 0 120 120" fill="none" xmlns="http://www.w3.org/2000/svg">
<path d="M28.3334 20H21.6666C20.7449 20 20 20.7467 20 21.6666V31.6666C20 32.5865 20.7449 33.3332 21.6666 33.3332H28.3332C29.2549 33.3332 29.9998 32.5865 29.9998 31.6666V21.6666C30 20.7467 29.2551 20 28.3334 20ZM26.6666 30H23.3334V23.3334H26.6668V30H26.6666Z" fill="#8A46CD"/>
<path d="M81.6666 103.333H35C34.0783 103.333 33.3334 104.08 33.3334 105V108.333C33.3334 109.253 34.0783 110 35 110C35.9217 110 36.6666 109.253 36.6666 108.333V106.667H81.6666C82.5883 106.667 83.3332 105.92 83.3332 105C83.3332 104.08 82.5883 103.333 81.6666 103.333Z" fill="#8A46CD"/>
<path d="M28.3334 60H21.6666C20.7449 60 20 60.7467 20 61.6666V65C20 65.9199 20.7449 66.6666 21.6666 66.6666C22.5883 66.6666 23.3332 65.9199 23.3332 65V63.3334H26.6666V71.6668C26.6666 72.5867 27.4115 73.3334 28.3332 73.3334C29.2549 73.3334 29.9998 72.5867 29.9998 71.6668V61.6668C30 60.7467 29.2551 60 28.3334 60Z" fill="#8A46CD"/>
<path d="M18.3334 70C10.0967 70 10 91.45 10 91.6666C10 95.6916 12.8684 99.0566 16.6666 99.8316V108.333C16.6666 109.253 17.4115 110 18.3332 110C19.2549 110 19.9998 109.253 19.9998 108.333V99.8316C23.798 99.0566 26.6664 95.6916 26.6664 91.6666C26.6666 91.45 26.5699 70 18.3334 70ZM18.3334 96.6666C15.5768 96.6666 13.3334 94.4232 13.3334 91.6666C13.3334 83.3633 15.5635 73.3332 18.3334 73.3332C21.1033 73.3332 23.3334 83.3633 23.3334 91.6666C23.3334 94.4232 21.09 96.6666 18.3334 96.6666Z" fill="#8A46CD"/>
<path d="M28.3334 40H21.6666C20.7449 40 20 40.7467 20 41.6666V51.6666C20 52.5865 20.7449 53.3332 21.6666 53.3332H28.3332C29.2549 53.3332 29.9998 52.5865 29.9998 51.6666V41.6666C30 40.7467 29.2551 40 28.3334 40ZM26.6666 50H23.3334V43.3334H26.6668V50H26.6666Z" fill="#8A46CD"/>
<path d="M51.6666 33.3334C52.5883 33.3334 53.3332 32.5867 53.3332 31.6668V21.6668C53.3332 20.7469 52.5883 20.0002 51.6666 20.0002H45C44.0783 20.0002 43.3334 20.7469 43.3334 21.6668V31.6668C43.3334 32.5867 44.0783 33.3334 45 33.3334H51.6666ZM46.6666 23.3334H50V30H46.6666V23.3334Z" fill="#8A46CD"/>
<path d="M43.3334 81.6666C43.3334 82.5865 44.0783 83.3332 45 83.3332H50V98.3332C50 99.2531 50.7449 99.9998 51.6666 99.9998C52.5883 99.9998 53.3332 99.2531 53.3332 98.3332V83.3332H66.6666V98.3332C66.6666 99.2531 67.4115 99.9998 68.3332 99.9998C69.2549 99.9998 69.9998 99.2531 69.9998 98.3332V83.3332H74.9998C75.9215 83.3332 76.6664 82.5865 76.6664 81.6666C76.6664 80.7467 75.9215 80 74.9998 80H45C44.0783 80 43.3334 80.7467 43.3334 81.6666Z" fill="#8A46CD"/>
<path d="M90 71.6666C90 72.5865 90.7449 73.3332 91.6666 73.3332H98.3332C99.2549 73.3332 99.9998 72.5865 99.9998 71.6666V61.6666C99.9998 60.7467 99.2549 60 98.3332 60H91.6666C90.7449 60 90 60.7467 90 61.6666V71.6666ZM93.3334 63.3334H96.6668V70H93.3334V63.3334Z" fill="#8A46CD"/>
<path d="M90 91.6666C90 92.5865 90.7449 93.3332 91.6666 93.3332H98.3332C99.2549 93.3332 99.9998 92.5865 99.9998 91.6666V81.6666C99.9998 80.7467 99.2549 80 98.3332 80H91.6666C90.7449 80 90 80.7467 90 81.6666V91.6666ZM93.3334 83.3334H96.6668V90H93.3334V83.3334Z" fill="#8A46CD"/>
<path d="M90 51.6666C90 52.5865 90.7449 53.3332 91.6666 53.3332H98.3332C99.2549 53.3332 99.9998 52.5865 99.9998 51.6666V41.6666C99.9998 40.7467 99.2549 40 98.3332 40H91.6666C90.7449 40 90 40.7467 90 41.6666V51.6666ZM93.3334 43.3334H96.6668V50H93.3334V43.3334Z" fill="#8A46CD"/>
<path d="M91.6666 33.3334H98.3332C99.2549 33.3334 99.9998 32.5867 99.9998 31.6668V21.6668C99.9998 20.7469 99.2549 20.0002 98.3332 20.0002H91.6666C90.7449 20.0002 90 20.7469 90 21.6668V31.6668C90 32.5867 90.7449 33.3334 91.6666 33.3334ZM93.3334 23.3334H96.6668V30H93.3334V23.3334Z" fill="#8A46CD"/>
<path d="M108.333 10H11.6666C10.7449 10 10 10.7467 10 11.6666V65C10 65.9199 10.7449 66.6666 11.6666 66.6666C12.5883 66.6666 13.3332 65.9199 13.3332 65V13.3334H106.667V100.307C106.143 100.12 105.588 100 105 100C104.712 100 104.425 100.025 104.143 100.075C102.995 98.0033 100.803 96.6666 98.3334 96.6666C95.8635 96.6666 93.6717 98.0033 92.5234 100.075C92.2418 100.025 91.9551 100 91.6668 100C88.9102 100 86.6668 102.243 86.6668 105C86.6668 107.757 88.9102 110 91.6668 110H105C107.757 110 110 107.757 110 105V11.6666C110 10.7467 109.255 10 108.333 10ZM105 106.667H91.6666C90.7467 106.667 90 105.918 90 105C90 104.082 90.7467 103.333 91.6666 103.333C91.985 103.333 92.2898 103.425 92.5699 103.605C93.025 103.9 93.5967 103.952 94.1 103.75C94.6033 103.545 94.9732 103.108 95.0982 102.58C95.45 101.062 96.7783 100 98.3332 100C99.8883 100 101.217 101.062 101.568 102.58C101.693 103.108 102.063 103.545 102.566 103.75C103.07 103.952 103.64 103.9 104.096 103.605C105.181 102.905 106.666 103.763 106.666 105C106.667 105.918 105.92 106.667 105 106.667Z" fill="#8A46CD"/>
<path d="M58.8166 90.4834C58.5148 90.8 58.3332 91.2334 58.3332 91.6668C58.3332 92.1002 58.5148 92.5334 58.8166 92.8502C59.1316 93.1502 59.5666 93.3336 60 93.3336C60.4334 93.3336 60.8666 93.1502 61.1834 92.8502C61.4834 92.5336 61.6668 92.1002 61.6668 91.6668C61.6668 91.2334 61.4834 90.8002 61.1834 90.4834C60.5666 89.8666 59.45 89.8666 58.8166 90.4834Z" fill="#8A46CD"/>
<path d="M81.6661 40H38.3329C37.4112 40 36.6663 40.7467 36.6663 41.6666V98.3332C36.6663 99.2531 37.4112 99.9998 38.3329 99.9998C39.2545 99.9998 39.9995 99.2531 39.9995 98.3332V43.3332H79.9995V98.3332C79.9995 99.2531 80.7444 99.9998 81.6661 99.9998C82.5877 99.9998 83.3327 99.2531 83.3327 98.3332V41.6666C83.3329 40.7467 82.5877 40 81.6661 40Z" fill="#8A46CD"/>
<path d="M75 33.3334C75.9217 33.3334 76.6666 32.5867 76.6666 31.6668V21.6668C76.6666 20.7469 75.9217 20.0002 75 20.0002H68.3334C67.4117 20.0002 66.6668 20.7469 66.6668 21.6668V31.6668C66.6668 32.5867 67.4117 33.3334 68.3334 33.3334H75ZM70 23.3334H73.3334V30H70V23.3334Z" fill="#8A46CD"/>
<path d="M62.4997 60C61.6702 60 60.9998 60.672 60.9998 61.4999V73.5C60.9998 74.328 61.6702 75 62.4997 75C63.3292 75 63.9996 74.328 63.9996 73.5V69L61.0002 69L60.9998 73.5C60.9998 74.328 61.6702 75 62.4997 75C63.3292 75 63.9996 74.328 63.9996 73.5L64 61.4999C64 60.672 63.3292 60 62.4997 60C61.6702 60 60.9998 60.672 60.9998 61.4999L61.0002 66H63.9996L64 61.4999C64 60.672 63.3292 60 62.4997 60Z" fill="#8A46CD"/>
<path d="M55 67.5002C55 68.3297 55.672 69 56.4999 69H68.5C69.328 69 70 68.3297 70 67.5002C70 66.6708 69.328 66.0004 68.5 66.0004L63.9996 66V69L68.5 69C69.328 69 70 68.3297 70 67.5002C70 66.6708 69.328 66.0004 68.5 66.0004L56.4999 66C55.672 66 55 66.6708 55 67.5002C55 68.3297 55.672 69 56.4999 69L61.0002 69V66L56.4999 66C55.672 66 55 66.6708 55 67.5002Z" fill="#8A46CD"/>
</svg>
