<svg width="120" height="120" viewBox="0 0 120 120" fill="none" xmlns="http://www.w3.org/2000/svg">
<g clip-path="url(#clip0_566_13542)">
<path d="M43.3729 72.824C44.6847 72.824 45.7482 71.7823 45.7482 70.4973C45.7482 69.2122 44.6847 68.1705 43.3729 68.1705C42.0611 68.1705 40.9977 69.2122 40.9977 70.4973C40.9977 71.7823 42.0611 72.824 43.3729 72.824Z" fill="#8A46CD"/>
<path d="M76.627 72.824C77.9388 72.824 79.0023 71.7823 79.0023 70.4973C79.0023 69.2122 77.9388 68.1705 76.627 68.1705C75.3153 68.1705 74.2518 69.2122 74.2518 70.4973C74.2518 71.7823 75.3153 72.824 76.627 72.824Z" fill="#8A46CD"/>
<path d="M59.9999 10C32.4466 10 10.1188 31.8722 10.1188 58.8633C10.1188 73.5223 16.7697 87.2506 28.171 96.5578C28.6462 97.0231 29.1212 97.0231 29.5962 97.0231C30.3088 97.0231 31.0214 96.7904 31.4964 96.0923C32.4466 95.1615 32.209 93.5328 31.2588 92.8347C20.8075 84.4582 14.8692 72.1259 14.8692 58.8631C14.8692 34.4315 35.0593 14.6535 59.9999 14.6535C84.9405 14.6535 105.131 34.4315 105.131 58.8631C105.131 72.1259 99.1923 84.4582 88.741 92.8347C87.7908 93.7655 87.5534 95.1615 88.5034 96.0923C89.4536 97.0231 90.8786 97.2557 91.8288 96.3251C103.23 87.0179 109.881 73.2895 109.881 58.6306C109.881 31.8722 87.5534 10 59.9999 10Z" fill="#8A46CD"/>
<path d="M79.0023 58.8633H62.3751V44.9024H79.0023C80.4275 44.9024 81.3775 43.9716 81.3775 42.5757C81.3775 41.1797 80.4273 40.2489 79.0023 40.2489H40.9977C39.5725 40.2489 38.6225 41.1797 38.6225 42.5757C38.6225 43.9716 39.5727 44.9024 40.9977 44.9024H57.6249V58.8633H40.9977C39.5725 58.8633 38.6225 59.7941 38.6225 61.1901C38.6225 62.586 39.5727 63.5168 40.9977 63.5168H79.0025C80.4277 63.5168 81.3777 62.586 81.3777 61.1901C81.3777 59.7941 80.4275 58.8633 79.0023 58.8633Z" fill="#8A46CD"/>
<path d="M90.1662 104.236L78.5273 85.6217C77.8147 84.4584 76.3895 84.2256 75.2019 84.9237C74.0143 85.6217 73.7767 87.0179 74.4893 88.1812L86.3658 106.796C86.8408 107.494 87.5534 107.959 88.266 107.959C88.741 107.959 89.2162 107.959 89.4536 107.494C90.6414 106.796 90.8788 105.4 90.1662 104.236Z" fill="#8A46CD"/>
<path d="M44.5605 84.9237C43.3729 84.2256 41.9477 84.4584 41.2351 85.6217L29.3586 104.236C28.646 105.4 28.8836 106.796 30.0712 107.494C30.5462 107.727 31.0214 107.727 31.4964 107.727C32.209 107.727 33.159 107.261 33.3966 106.563L45.2731 87.9487C45.9858 87.0179 45.7482 85.389 44.5605 84.9237Z" fill="#8A46CD"/>
<path d="M76.6271 103.073H43.3729C41.9477 103.073 40.9977 104.004 40.9977 105.4C40.9977 106.796 41.9479 107.726 43.3729 107.726H76.6271C78.0523 107.726 79.0023 106.796 79.0023 105.4C79.0023 104.004 78.0523 103.073 76.6271 103.073Z" fill="#8A46CD"/>
<path d="M71.8764 93.7655H48.1236C46.6984 93.7655 45.7484 94.6964 45.7484 96.0923C45.7484 97.4882 46.6986 98.419 48.1236 98.419H71.8766C73.3018 98.419 74.2518 97.4882 74.2518 96.0923C74.2518 94.6964 73.3016 93.7655 71.8764 93.7655Z" fill="#8A46CD"/>
<path d="M67.126 84.4583H52.8742C51.449 84.4583 50.499 85.3892 50.499 86.7851C50.499 88.1812 51.4492 89.1118 52.8742 89.1118H67.126C68.5512 89.1118 69.5012 88.181 69.5012 86.7851C69.5012 85.389 68.551 84.4583 67.126 84.4583Z" fill="#8A46CD"/>
<path d="M64.7505 68.1705H55.2495C53.8242 68.1705 52.8742 69.1013 52.8742 70.4973C52.8742 71.8932 53.8244 72.824 55.2495 72.824H64.7505C66.1758 72.824 67.1258 71.8932 67.1258 70.4973C67.1258 69.1013 66.1758 68.1705 64.7505 68.1705Z" fill="#8A46CD"/>
<path d="M81.3777 28.6146H71.4014C70.4512 25.8223 67.8384 23.9609 64.7505 23.9609H55.2494C51.2114 23.9609 48.1236 26.9857 48.1236 30.9413C48.1236 34.897 51.2114 37.9218 55.2494 37.9218H64.7505C66.1757 37.9218 67.1258 36.991 67.1258 35.595C67.1258 34.1991 66.1755 33.2683 64.7505 33.2683H55.2494C53.8242 33.2683 52.8742 32.3375 52.8742 30.9415C52.8742 29.5456 53.8244 28.6148 55.2494 28.6148H64.7505C66.1757 28.6148 67.1258 29.5456 67.1258 30.9415C67.1258 32.3375 68.076 33.2683 69.501 33.2683H81.3775C82.8027 33.2683 83.7527 34.1991 83.7527 35.595V75.151C83.7527 76.5471 82.8025 77.4777 81.3775 77.4777H38.6223C37.1971 77.4777 36.247 76.5469 36.247 75.151V35.595C36.247 34.1989 37.1973 33.2683 38.6223 33.2683H40.9975C42.4227 33.2683 43.3727 32.3375 43.3727 30.9415C43.3727 29.5456 42.4225 28.6148 40.9975 28.6148H38.6223C34.5842 28.6148 31.4964 31.6396 31.4964 35.5952V75.1512C31.4964 79.1068 34.5842 82.1316 38.6223 82.1316H81.3777C85.4157 82.1316 88.5036 79.1068 88.5036 75.1512V35.595C88.5036 31.6394 85.4157 28.6146 81.3777 28.6146Z" fill="#8A46CD"/>
</g>
<defs>
<clipPath id="clip0_566_13542">
<rect width="100" height="97.9592" fill="white" transform="translate(10 10)"/>
</clipPath>
</defs>
</svg>
