<svg width="20" height="20" viewBox="0 0 20 20" fill="none" xmlns="http://www.w3.org/2000/svg">
<path fill-rule="evenodd" clip-rule="evenodd" d="M4.375 2.5C3.33947 2.5 2.5 3.33947 2.5 4.375V5.87993C2.5 12.3002 7.70469 17.5049 14.125 17.5049H15.625C16.6605 17.5049 17.5 16.6655 17.5 15.6299V13.7061C17.5 12.8991 16.9836 12.1826 16.2179 11.9274L13.8305 11.1315C13.0283 10.8642 12.1465 11.1667 11.6775 11.8703L11.1307 12.6903C11.0369 12.8311 10.8606 12.8916 10.7001 12.8381L9.55609 12.4567C8.62078 12.145 7.90317 11.3864 7.64376 10.4352L7.17347 8.71082C7.1211 8.51881 7.22785 8.31933 7.41667 8.2564L7.86859 8.10576C8.69149 7.83145 9.19255 6.99925 9.04994 6.14363L8.7038 4.06675C8.55311 3.16265 7.77088 2.5 6.85431 2.5H4.375ZM3.25 5.87993V4.375C3.25 3.75368 3.75368 3.25 4.375 3.25H6.85431C7.40425 3.25 7.87359 3.64759 7.964 4.19005L8.31015 6.26693C8.39208 6.75851 8.10421 7.23665 7.63141 7.39424L7.1795 7.54488C6.61306 7.7337 6.29279 8.33212 6.44989 8.90816L6.92019 10.6326C7.24557 11.8257 8.14571 12.7772 9.31891 13.1683L10.463 13.5496C10.9443 13.71 11.4734 13.5285 11.7548 13.1064L12.3015 12.2863C12.5829 11.8642 13.112 11.6826 13.5933 11.8431L15.9808 12.6389C16.4401 12.792 16.75 13.2219 16.75 13.7061V15.6299C16.75 16.2513 16.2463 16.7549 15.625 16.7549H14.125C8.1189 16.7549 3.25 11.886 3.25 5.87993Z" fill="#8A46CD"/>
<path d="M13.8305 11.1315L13.7514 11.3687L13.8305 11.1315ZM11.6775 11.8703L11.8855 12.0089L11.6775 11.8703ZM11.1307 12.6903L10.9227 12.5517L11.1307 12.6903ZM10.7001 12.8381L10.7792 12.6009L10.7001 12.8381ZM9.55609 12.4567L9.47703 12.6939L9.55609 12.4567ZM7.64376 10.4352L7.40257 10.501L7.64376 10.4352ZM7.17347 8.71082L7.41466 8.64504V8.64504L7.17347 8.71082ZM7.41667 8.2564L7.33761 8.01923L7.41667 8.2564ZM7.86859 8.10576L7.78953 7.86859L7.86859 8.10576ZM9.04994 6.14363L9.29654 6.10253H9.29654L9.04994 6.14363ZM8.7038 4.06675L8.9504 4.02565L8.7038 4.06675ZM7.964 4.19005L8.2106 4.14895V4.14895L7.964 4.19005ZM7.63141 7.39424L7.71047 7.63141H7.71047L7.63141 7.39424ZM6.44989 8.90816L6.2087 8.97394L6.44989 8.90816ZM6.92019 10.6326L6.67899 10.6983L6.92019 10.6326ZM9.31891 13.1683L9.39797 12.9311H9.39797L9.31891 13.1683ZM10.463 13.5496L10.3839 13.7868H10.3839L10.463 13.5496ZM11.7548 13.1064L11.5468 12.9677L11.7548 13.1064ZM12.3015 12.2863L12.5095 12.425L12.3015 12.2863ZM13.5933 11.8431L13.5143 12.0802L13.5933 11.8431ZM15.9808 12.6389L16.0598 12.4017L15.9808 12.6389ZM2.75 4.375C2.75 3.47754 3.47754 2.75 4.375 2.75V2.25C3.20139 2.25 2.25 3.20139 2.25 4.375H2.75ZM2.75 5.87993V4.375H2.25V5.87993H2.75ZM14.125 17.2549C7.84276 17.2549 2.75 12.1622 2.75 5.87993H2.25C2.25 12.4383 7.56662 17.7549 14.125 17.7549V17.2549ZM15.625 17.2549H14.125V17.7549H15.625V17.2549ZM17.25 15.6299C17.25 16.5274 16.5225 17.2549 15.625 17.2549V17.7549C16.7986 17.7549 17.75 16.8035 17.75 15.6299H17.25ZM17.25 13.7061V15.6299H17.75V13.7061H17.25ZM16.1389 12.1645C16.8024 12.3857 17.25 13.0067 17.25 13.7061H17.75C17.75 12.7915 17.1647 11.9794 16.297 11.6902L16.1389 12.1645ZM13.7514 11.3687L16.1389 12.1645L16.297 11.6902L13.9095 10.8944L13.7514 11.3687ZM11.8855 12.0089C12.292 11.3992 13.0562 11.137 13.7514 11.3687L13.9095 10.8944C13.0004 10.5913 12.001 10.9343 11.4695 11.7316L11.8855 12.0089ZM11.3388 12.829L11.8855 12.0089L11.4695 11.7316L10.9227 12.5517L11.3388 12.829ZM10.6211 13.0753C10.8885 13.1644 11.1824 13.0635 11.3388 12.829L10.9227 12.5517C10.8915 12.5986 10.8327 12.6187 10.7792 12.6009L10.6211 13.0753ZM9.47703 12.6939L10.6211 13.0753L10.7792 12.6009L9.63514 12.2196L9.47703 12.6939ZM7.40257 10.501C7.68397 11.5328 8.46242 12.3557 9.47703 12.6939L9.63514 12.2196C8.77913 11.9342 8.12236 11.24 7.88495 10.3694L7.40257 10.501ZM6.93227 8.7766L7.40257 10.501L7.88495 10.3694L7.41466 8.64504L6.93227 8.7766ZM7.33761 8.01923C7.02292 8.12412 6.845 8.45658 6.93227 8.7766L7.41466 8.64504C7.3972 8.58104 7.43279 8.51455 7.49572 8.49357L7.33761 8.01923ZM7.78953 7.86859L7.33761 8.01923L7.49572 8.49357L7.94764 8.34293L7.78953 7.86859ZM8.80335 6.18473C8.92572 6.919 8.49573 7.63319 7.78953 7.86859L7.94764 8.34293C8.88726 8.02972 9.45937 7.07949 9.29654 6.10253L8.80335 6.18473ZM8.4572 4.10785L8.80335 6.18473L9.29654 6.10253L8.9504 4.02565L8.4572 4.10785ZM6.85431 2.75C7.64867 2.75 8.32661 3.3243 8.4572 4.10785L8.9504 4.02565C8.77962 3.001 7.89309 2.25 6.85431 2.25V2.75ZM4.375 2.75H6.85431V2.25H4.375V2.75ZM3 4.375V5.87993H3.5V4.375H3ZM4.375 3C3.61561 3 3 3.61561 3 4.375H3.5C3.5 3.89175 3.89175 3.5 4.375 3.5V3ZM6.85431 3H4.375V3.5H6.85431V3ZM8.2106 4.14895C8.1001 3.48594 7.52646 3 6.85431 3V3.5C7.28204 3.5 7.64708 3.80924 7.7174 4.23115L8.2106 4.14895ZM8.55675 6.22583L8.2106 4.14895L7.7174 4.23115L8.06355 6.30803L8.55675 6.22583ZM7.71047 7.63141C8.29997 7.43492 8.6589 6.83876 8.55675 6.22583L8.06355 6.30803C8.12526 6.67827 7.90844 7.03838 7.55236 7.15707L7.71047 7.63141ZM7.25855 7.78205L7.71047 7.63141L7.55236 7.15707L7.10044 7.30771L7.25855 7.78205ZM6.69108 8.84238C6.56889 8.39435 6.81799 7.92891 7.25855 7.78205L7.10044 7.30771C6.40813 7.53848 6.01669 8.26989 6.2087 8.97394L6.69108 8.84238ZM7.16138 10.5668L6.69108 8.84238L6.2087 8.97394L6.67899 10.6983L7.16138 10.5668ZM9.39797 12.9311C8.30407 12.5664 7.46477 11.6792 7.16138 10.5668L6.67899 10.6983C7.02638 11.9721 7.98735 12.9879 9.23986 13.4054L9.39797 12.9311ZM10.542 13.3124L9.39797 12.9311L9.23986 13.4054L10.3839 13.7868L10.542 13.3124ZM11.5468 12.9677C11.3279 13.296 10.9164 13.4372 10.542 13.3124L10.3839 13.7868C10.9721 13.9829 11.6188 13.761 11.9628 13.245L11.5468 12.9677ZM12.0935 12.1476L11.5468 12.9677L11.9628 13.245L12.5095 12.425L12.0935 12.1476ZM13.6724 11.6059C13.0841 11.4098 12.4374 11.6317 12.0935 12.1476L12.5095 12.425C12.7284 12.0967 13.1399 11.9554 13.5143 12.0802L13.6724 11.6059ZM16.0598 12.4017L13.6724 11.6059L13.5143 12.0802L15.9017 12.876L16.0598 12.4017ZM17 13.7061C17 13.1143 16.6213 12.5889 16.0598 12.4017L15.9017 12.876C16.259 12.9951 16.5 13.3295 16.5 13.7061H17ZM17 15.6299V13.7061H16.5V15.6299H17ZM15.625 17.0049C16.3844 17.0049 17 16.3893 17 15.6299H16.5C16.5 16.1132 16.1082 16.5049 15.625 16.5049V17.0049ZM14.125 17.0049H15.625V16.5049H14.125V17.0049ZM3 5.87993C3 12.0241 7.98083 17.0049 14.125 17.0049V16.5049C8.25697 16.5049 3.5 11.748 3.5 5.87993H3Z" fill="#8A46CD"/>
</svg>
