<svg width="32" height="32" viewBox="0 0 32 32" fill="none" xmlns="http://www.w3.org/2000/svg">
<path fill-rule="evenodd" clip-rule="evenodd" d="M7 4C5.34315 4 4 5.34315 4 7V9.40789C4 19.6804 12.3275 28.0079 22.6 28.0079H25C26.6569 28.0079 28 26.6647 28 25.0079V21.9298C28 20.6385 27.1737 19.4921 25.9487 19.0838L22.1288 17.8105C20.8454 17.3827 19.4344 17.8668 18.6839 18.9924L17.8092 20.3046C17.6591 20.5297 17.3769 20.6265 17.1202 20.541L15.2897 19.9308C13.7932 19.432 12.6451 18.2182 12.23 16.6964L11.4775 13.9373C11.3938 13.6301 11.5646 13.3109 11.8667 13.2102L12.5897 12.9692C13.9064 12.5303 14.7081 11.1988 14.4799 9.82981L13.9261 6.5068C13.685 5.06024 12.4334 4 10.9669 4H7ZM5.2 9.40789V7C5.2 6.00589 6.00589 5.2 7 5.2H10.9669C11.8468 5.2 12.5977 5.83614 12.7424 6.70408L13.2962 10.0271C13.4273 10.8136 12.9667 11.5786 12.2103 11.8308L11.4872 12.0718C10.5809 12.3739 10.0685 13.3314 10.3198 14.2531L11.0723 17.0121C11.5929 18.9211 13.0331 20.4435 14.9103 21.0692L16.7407 21.6794C17.5108 21.9361 18.3574 21.6456 18.8076 20.9702L19.6824 19.6581C20.1327 18.9827 20.9792 18.6922 21.7493 18.9489L25.5692 20.2222C26.3042 20.4672 26.8 21.155 26.8 21.9298V25.0079C26.8 26.002 25.9941 26.8079 25 26.8079H22.6C12.9902 26.8079 5.2 19.0176 5.2 9.40789Z" fill="#9A51E3"/>
<path d="M25.9487 19.0838L26.0277 18.8466L25.9487 19.0838ZM22.1288 17.8105L22.0497 18.0476L22.1288 17.8105ZM18.6839 18.9924L18.892 19.1311L18.6839 18.9924ZM17.8092 20.3046L18.0172 20.4432L17.8092 20.3046ZM17.1202 20.541L17.1993 20.3038L17.1202 20.541ZM15.2897 19.9308L15.3688 19.6936L15.2897 19.9308ZM12.23 16.6964L11.9888 16.7621L12.23 16.6964ZM11.4775 13.9373L11.2364 14.0031L11.4775 13.9373ZM11.8667 13.2102L11.9457 13.4474L11.8667 13.2102ZM12.5897 12.9692L12.6688 13.2064L12.5897 12.9692ZM14.4799 9.82981L14.7265 9.78871L14.4799 9.82981ZM13.9261 6.5068L13.6795 6.5479L13.9261 6.5068ZM12.7424 6.70408L12.989 6.66298V6.66298L12.7424 6.70408ZM13.2962 10.0271L13.0496 10.0682L13.2962 10.0271ZM12.2103 11.8308L12.2893 12.068L12.2103 11.8308ZM11.4872 12.0718L11.5663 12.309H11.5663L11.4872 12.0718ZM10.3198 14.2531L10.0786 14.3188L10.3198 14.2531ZM11.0723 17.0121L11.3135 16.9463L11.0723 17.0121ZM14.9103 21.0692L14.9893 20.832L14.9103 21.0692ZM16.7407 21.6794L16.6617 21.9165L16.7407 21.6794ZM18.8076 20.9702L18.5996 20.8315L18.8076 20.9702ZM19.6824 19.6581L19.8904 19.7967L19.6824 19.6581ZM21.7493 18.9489L21.8284 18.7117L21.7493 18.9489ZM25.5692 20.2222L25.4902 20.4594L25.5692 20.2222ZM4.25 7C4.25 5.48122 5.48122 4.25 7 4.25V3.75C5.20507 3.75 3.75 5.20507 3.75 7H4.25ZM4.25 9.40789V7H3.75V9.40789H4.25ZM22.6 27.7579C12.4656 27.7579 4.25 19.5423 4.25 9.40789H3.75C3.75 19.8185 12.1894 28.2579 22.6 28.2579V27.7579ZM25 27.7579H22.6V28.2579H25V27.7579ZM27.75 25.0079C27.75 26.5267 26.5188 27.7579 25 27.7579V28.2579C26.7949 28.2579 28.25 26.8028 28.25 25.0079H27.75ZM27.75 21.9298V25.0079H28.25V21.9298H27.75ZM25.8696 19.3209C26.9926 19.6953 27.75 20.7461 27.75 21.9298H28.25C28.25 20.5309 27.3549 19.289 26.0277 18.8466L25.8696 19.3209ZM22.0497 18.0476L25.8696 19.3209L26.0277 18.8466L22.2078 17.5733L22.0497 18.0476ZM18.892 19.1311C19.5798 18.0993 20.8732 17.6555 22.0497 18.0476L22.2078 17.5733C20.8175 17.1098 19.2889 17.6343 18.4759 18.8537L18.892 19.1311ZM18.0172 20.4432L18.892 19.1311L18.4759 18.8537L17.6012 20.1659L18.0172 20.4432ZM17.0412 20.7781C17.4048 20.8993 17.8046 20.7622 18.0172 20.4432L17.6012 20.1659C17.5136 20.2972 17.349 20.3537 17.1993 20.3038L17.0412 20.7781ZM15.2107 20.168L17.0412 20.7781L17.1993 20.3038L15.3688 19.6936L15.2107 20.168ZM11.9888 16.7621C12.4259 18.3646 13.6349 19.6427 15.2107 20.168L15.3688 19.6936C13.9516 19.2212 12.8643 18.0718 12.4712 16.6306L11.9888 16.7621ZM11.2364 14.0031L11.9888 16.7621L12.4712 16.6306L11.7187 13.8715L11.2364 14.0031ZM11.7876 12.9731C11.3596 13.1157 11.1177 13.5679 11.2364 14.0031L11.7187 13.8715C11.6699 13.6923 11.7695 13.5061 11.9457 13.4474L11.7876 12.9731ZM12.5107 12.732L11.7876 12.9731L11.9457 13.4474L12.6688 13.2064L12.5107 12.732ZM14.2333 9.87091C14.4413 11.1186 13.7106 12.3321 12.5107 12.732L12.6688 13.2064C14.1022 12.7286 14.9749 11.279 14.7265 9.78871L14.2333 9.87091ZM13.6795 6.5479L14.2333 9.87091L14.7265 9.78871L14.1727 6.4657L13.6795 6.5479ZM10.9669 4.25C12.3112 4.25 13.4585 5.22189 13.6795 6.5479L14.1727 6.4657C13.9115 4.89859 12.5556 3.75 10.9669 3.75V4.25ZM7 4.25H10.9669V3.75H7V4.25ZM4.95 7V9.40789H5.45V7H4.95ZM7 4.95C5.86782 4.95 4.95 5.86782 4.95 7H5.45C5.45 6.14396 6.14396 5.45 7 5.45V4.95ZM10.9669 4.95H7V5.45H10.9669V4.95ZM12.989 6.66298C12.8243 5.6745 11.969 4.95 10.9669 4.95V5.45C11.7246 5.45 12.3712 5.99779 12.4958 6.74518L12.989 6.66298ZM13.5428 9.98599L12.989 6.66298L12.4958 6.74518L13.0496 10.0682L13.5428 9.98599ZM12.2893 12.068C13.1625 11.7769 13.6942 10.8939 13.5428 9.98599L13.0496 10.0682C13.1605 10.7334 12.771 11.3804 12.1312 11.5936L12.2893 12.068ZM11.5663 12.309L12.2893 12.068L12.1312 11.5936L11.4081 11.8346L11.5663 12.309ZM10.561 14.1873C10.3446 13.3936 10.7858 12.5691 11.5663 12.309L11.4081 11.8346C10.376 12.1787 9.79237 13.2692 10.0786 14.3188L10.561 14.1873ZM11.3135 16.9463L10.561 14.1873L10.0786 14.3188L10.8311 17.0779L11.3135 16.9463ZM14.9893 20.832C13.1915 20.2328 11.8121 18.7746 11.3135 16.9463L10.8311 17.0779C11.3737 19.0675 12.8748 20.6542 14.8312 21.3064L14.9893 20.832ZM16.8198 21.4422L14.9893 20.832L14.8312 21.3064L16.6617 21.9165L16.8198 21.4422ZM18.5996 20.8315C18.2119 21.4131 17.4829 21.6632 16.8198 21.4422L16.6617 21.9165C17.5387 22.2089 18.5029 21.8781 19.0157 21.1089L18.5996 20.8315ZM19.4744 19.5194L18.5996 20.8315L19.0157 21.1089L19.8904 19.7967L19.4744 19.5194ZM21.8284 18.7117C20.9514 18.4194 19.9872 18.7502 19.4744 19.5194L19.8904 19.7967C20.2781 19.2152 21.0071 18.965 21.6702 19.1861L21.8284 18.7117ZM25.6483 19.985L21.8284 18.7117L21.6702 19.1861L25.4902 20.4594L25.6483 19.985ZM27.05 21.9298C27.05 21.0474 26.4854 20.2641 25.6483 19.985L25.4902 20.4594C26.1231 20.6703 26.55 21.2627 26.55 21.9298H27.05ZM27.05 25.0079V21.9298H26.55V25.0079H27.05ZM25 27.0579C26.1322 27.0579 27.05 26.1401 27.05 25.0079H26.55C26.55 25.8639 25.856 26.5579 25 26.5579V27.0579ZM22.6 27.0579H25V26.5579H22.6V27.0579ZM4.95 9.40789C4.95 19.1557 12.8522 27.0579 22.6 27.0579V26.5579C13.1283 26.5579 5.45 18.8796 5.45 9.40789H4.95Z" fill="#9A51E3"/>
</svg>
