<svg width="120" height="120" viewBox="0 0 120 120" fill="none" xmlns="http://www.w3.org/2000/svg">
<path d="M105.408 108.357V86.5H93.1633V28.2144V26.6531V10.5204H57.449V25.0918H26.8367V86.5H14.5918V108.357H10V111.479H110V108.357H105.408ZM26.8367 108.357H17.6531V89.6223H26.8367V108.357ZM65.6123 108.357H54.3879V98.9898H58.4695V103.673H61.5307V98.9898H65.6123V108.357ZM90.102 108.357H68.6734V98.9898H72.2449V95.8672H47.7551V98.9896H51.3266V108.357H29.898V91.7038H90.1021V108.357H90.102ZM36.0203 88.5816V79.2144H45.2039V88.5816H36.0203ZM55.4082 88.5816V79.2144H64.5918V88.5816H55.4082ZM74.7959 88.5816V79.2144H83.9795V88.5816H74.7959ZM90.102 88.5816H87.0408V76.0918H71.7348V88.5816H67.6531V76.0918H52.3471V88.5816H48.2654V76.0918H32.9594V88.5816H29.8982V72.9694H90.1023V88.5816H90.102ZM90.102 69.8469H29.898V66.7245H90.1021V69.8469H90.102ZM36.0203 63.602V54.2347H45.2039V63.602H36.0203ZM55.4082 63.602V54.2347H64.5918V63.602H55.4082ZM74.7959 63.602V54.2347H83.9795V63.602H74.7959ZM90.102 63.602H87.0408V51.1122H71.7348V63.602H67.6531V51.1122H52.3471V63.602H48.2654V51.1122H32.9594V63.602H29.8982V46.9489H90.1023V63.602H90.102ZM36.0203 43.8265V34.4593H45.2039V43.8265H36.0203ZM55.4082 43.8265V34.4593H64.5918V43.8265H55.4082ZM74.7959 43.8265V34.4593H83.9795V43.8265H74.7959ZM90.102 43.8265H87.0408V31.3367H71.7348V43.8265H67.6531V31.3367H52.3471V43.8265H48.2654V31.3367H32.9594V43.8265H29.8982V28.2144H90.1023V43.8265H90.102ZM90.102 25.0918H60.5102V13.6429H90.102V25.0918ZM102.347 108.357H93.1633V89.6223H102.347V108.357Z" fill="#8A46CD"/>
<path d="M68.1633 17.8062H64.0816V20.9285H68.1633V17.8062Z" fill="#8A46CD"/>
<path d="M74.2857 17.8062H70.2041V20.9285H74.2857V17.8062Z" fill="#8A46CD"/>
<path d="M80.4082 17.8062H76.3266V20.9285H80.4082V17.8062Z" fill="#8A46CD"/>
<path d="M86.5307 17.8062H82.449V20.9285H86.5307V17.8062Z" fill="#8A46CD"/>
<path d="M32.9592 94.8265V105.235H44.1836V94.8265H32.9592ZM41.1224 102.112H36.0205V97.9489H41.1224V102.112Z" fill="#8A46CD"/>
<path d="M75.8164 94.8265V105.235H87.0408V94.8265H75.8164ZM83.9797 102.112H78.8777V97.9489H83.9797V102.112Z" fill="#8A46CD"/>
</svg>
