<svg width="20" height="20" viewBox="0 0 20 20" fill="none" xmlns="http://www.w3.org/2000/svg">
<path fill-rule="evenodd" clip-rule="evenodd" d="M12.5648 10.7838L15.4454 12.0932C16.1891 12.4312 16.6666 13.1728 16.6666 13.9898V14.5833C16.6666 15.7338 15.7339 16.6666 14.5833 16.6666H5.41665C4.26605 16.6666 3.33331 15.7338 3.33331 14.5833V13.9898C3.33331 13.1728 3.81082 12.4312 4.55456 12.0932L7.43511 10.7838C6.46006 10.0212 5.83331 8.83375 5.83331 7.49992C5.83331 5.19873 7.69879 3.33325 9.99998 3.33325C12.3012 3.33325 14.1666 5.19873 14.1666 7.49992C14.1666 8.83375 13.5399 10.0212 12.5648 10.7838ZM8.30103 11.3056L4.89939 12.8518C4.45315 13.0547 4.16665 13.4996 4.16665 13.9898V14.5833C4.16665 15.2736 4.72629 15.8333 5.41665 15.8333H14.5833C15.2737 15.8333 15.8333 15.2736 15.8333 14.5833V13.9898C15.8333 13.4996 15.5468 13.0547 15.1006 12.8518L11.6989 11.3056C11.1801 11.5376 10.6051 11.6666 9.99998 11.6666C9.39487 11.6666 8.81989 11.5376 8.30103 11.3056ZM13.3333 7.49992C13.3333 9.34087 11.8409 10.8333 9.99998 10.8333C8.15903 10.8333 6.66665 9.34087 6.66665 7.49992C6.66665 5.65897 8.15903 4.16659 9.99998 4.16659C11.8409 4.16659 13.3333 5.65897 13.3333 7.49992Z" fill="#8A46CD"/>
<path d="M15.4454 12.0932L15.5489 11.8656L15.4454 12.0932ZM12.5648 10.7838L12.4108 10.5869L12.0862 10.8409L12.4614 11.0114L12.5648 10.7838ZM4.55456 12.0932L4.45111 11.8656H4.45111L4.55456 12.0932ZM7.43511 10.7838L7.53856 11.0114L7.91381 10.8409L7.58913 10.5869L7.43511 10.7838ZM4.89939 12.8518L4.79594 12.6242H4.79594L4.89939 12.8518ZM8.30103 11.3056L8.40307 11.0774L8.30019 11.0314L8.19758 11.078L8.30103 11.3056ZM15.1006 12.8518L15.204 12.6242L15.1006 12.8518ZM11.6989 11.3056L11.8024 11.078L11.6998 11.0314L11.5969 11.0774L11.6989 11.3056ZM15.5489 11.8656L12.6683 10.5562L12.4614 11.0114L15.342 12.3208L15.5489 11.8656ZM16.9166 13.9898C16.9166 13.0748 16.3818 12.2442 15.5489 11.8656L15.342 12.3208C15.9964 12.6183 16.4166 13.2708 16.4166 13.9898H16.9166ZM16.9166 14.5833V13.9898H16.4166V14.5833H16.9166ZM14.5833 16.9166C15.872 16.9166 16.9166 15.8719 16.9166 14.5833H16.4166C16.4166 15.5958 15.5958 16.4166 14.5833 16.4166V16.9166ZM5.41665 16.9166H14.5833V16.4166H5.41665V16.9166ZM3.08331 14.5833C3.08331 15.8719 4.12798 16.9166 5.41665 16.9166V16.4166C4.40412 16.4166 3.58331 15.5958 3.58331 14.5833H3.08331ZM3.08331 13.9898V14.5833H3.58331V13.9898H3.08331ZM4.45111 11.8656C3.61812 12.2442 3.08331 13.0748 3.08331 13.9898H3.58331C3.58331 13.2708 4.00352 12.6183 4.65801 12.3208L4.45111 11.8656ZM7.33166 10.5562L4.45111 11.8656L4.65801 12.3208L7.53856 11.0114L7.33166 10.5562ZM5.58331 7.49992C5.58331 8.91391 6.24806 10.1728 7.28109 10.9808L7.58913 10.5869C6.67205 9.86962 6.08331 8.75359 6.08331 7.49992H5.58331ZM9.99998 3.08325C7.56072 3.08325 5.58331 5.06066 5.58331 7.49992H6.08331C6.08331 5.3368 7.83686 3.58325 9.99998 3.58325V3.08325ZM14.4166 7.49992C14.4166 5.06066 12.4392 3.08325 9.99998 3.08325V3.58325C12.1631 3.58325 13.9166 5.3368 13.9166 7.49992H14.4166ZM12.7189 10.9808C13.7519 10.1728 14.4166 8.91391 14.4166 7.49992H13.9166C13.9166 8.75359 13.3279 9.86962 12.4108 10.5869L12.7189 10.9808ZM5.00284 13.0794L8.40449 11.5332L8.19758 11.078L4.79594 12.6242L5.00284 13.0794ZM4.41665 13.9898C4.41665 13.5976 4.64585 13.2417 5.00284 13.0794L4.79594 12.6242C4.26045 12.8676 3.91665 13.4016 3.91665 13.9898H4.41665ZM4.41665 14.5833V13.9898H3.91665V14.5833H4.41665ZM5.41665 15.5833C4.86436 15.5833 4.41665 15.1355 4.41665 14.5833H3.91665C3.91665 15.4117 4.58822 16.0833 5.41665 16.0833V15.5833ZM14.5833 15.5833H5.41665V16.0833H14.5833V15.5833ZM15.5833 14.5833C15.5833 15.1355 15.1356 15.5833 14.5833 15.5833V16.0833C15.4117 16.0833 16.0833 15.4117 16.0833 14.5833H15.5833ZM15.5833 13.9898V14.5833H16.0833V13.9898H15.5833ZM14.9971 13.0794C15.3541 13.2417 15.5833 13.5976 15.5833 13.9898H16.0833C16.0833 13.4016 15.7395 12.8676 15.204 12.6242L14.9971 13.0794ZM11.5955 11.5332L14.9971 13.0794L15.204 12.6242L11.8024 11.078L11.5955 11.5332ZM9.99998 11.9166C10.6409 11.9166 11.2506 11.7799 11.801 11.5338L11.5969 11.0774C11.1095 11.2953 10.5692 11.4166 9.99998 11.4166V11.9166ZM8.19899 11.5338C8.74933 11.7799 9.35903 11.9166 9.99998 11.9166V11.4166C9.43072 11.4166 8.89046 11.2953 8.40307 11.0774L8.19899 11.5338ZM9.99998 11.0833C11.979 11.0833 13.5833 9.47894 13.5833 7.49992H13.0833C13.0833 9.2028 11.7029 10.5833 9.99998 10.5833V11.0833ZM6.41665 7.49992C6.41665 9.47894 8.02096 11.0833 9.99998 11.0833V10.5833C8.2971 10.5833 6.91665 9.2028 6.91665 7.49992H6.41665ZM9.99998 3.91659C8.02096 3.91659 6.41665 5.5209 6.41665 7.49992H6.91665C6.91665 5.79704 8.2971 4.41659 9.99998 4.41659V3.91659ZM13.5833 7.49992C13.5833 5.5209 11.979 3.91659 9.99998 3.91659V4.41659C11.7029 4.41659 13.0833 5.79704 13.0833 7.49992H13.5833Z" fill="#8A46CD"/>
</svg>
