<svg width="120" height="52" viewBox="0 0 120 52" fill="none" xmlns="http://www.w3.org/2000/svg">
<g clip-path="url(#clip0_518_13955)">
<path d="M9.23629 8.71525C10.7223 8.20665 12.3054 7.95587 13.9879 7.95587C15.6693 7.95587 17.2594 8.20665 18.7524 8.71525C20.2454 9.22386 21.5348 9.91058 22.6206 10.7778C23.7064 11.645 24.646 12.6434 25.4452 13.7731C26.2431 14.9028 26.8457 16.104 27.2459 17.372C27.6449 18.6388 27.8414 19.9127 27.8414 21.1924C27.8414 22.4721 27.6449 23.7448 27.2459 25.0128C26.8457 26.2796 26.2431 27.4749 25.4452 28.6058C24.646 29.7355 23.7064 30.734 22.6206 31.6C21.5348 32.4672 20.2454 33.1551 18.7524 33.6625C17.2594 34.1711 15.6693 34.4278 13.9879 34.4278C12.3054 34.4278 10.7223 34.1711 9.23629 33.6625C7.75031 33.1551 6.4609 32.4672 5.36807 31.6C4.27523 30.734 3.32865 29.7355 2.5295 28.6058C1.73151 27.4749 1.13595 26.2796 0.735791 25.0128C0.3368 23.7448 0.133209 22.4721 0.133209 21.1924C0.133209 19.9127 0.3368 18.6388 0.735791 17.372C1.13595 16.104 1.73151 14.9028 2.5295 13.7731C3.32865 12.6434 4.27523 11.645 5.36807 10.7778C6.4609 9.91058 7.75031 9.22386 9.23629 8.71525ZM111.215 22.0432C111.249 21.9858 111.286 21.9237 111.327 21.8545C111.598 21.3916 112.044 20.6311 112.494 20.0146C112.944 19.3994 113.398 18.9283 113.866 18.5849C114.334 18.2427 114.814 18.0283 115.391 17.9252C115.968 17.8232 116.64 17.8338 117.178 17.9181C117.716 18.0037 118.121 18.1642 118.503 18.4314C118.884 18.6998 119.241 19.0748 119.464 19.4814C119.688 19.8869 119.777 20.3252 119.822 20.5443C119.867 20.7623 119.867 20.7623 119.867 20.7623C119.867 20.7623 119.867 20.7623 119.316 20.9979C118.763 21.2334 117.66 21.7057 117.108 21.9412C116.557 22.1768 116.557 22.1768 116.557 22.1768C116.557 22.1768 116.557 22.1768 116.607 21.8815C116.657 21.5873 116.758 20.9979 116.798 20.4963C116.836 19.9947 116.814 19.5787 116.732 19.2892C116.65 18.9998 116.509 18.8357 116.336 18.7385C116.162 18.6412 115.958 18.6107 115.72 18.6306C115.484 18.6506 115.215 18.722 114.919 18.8521C114.621 18.9834 114.296 19.1744 113.997 19.4182C113.697 19.6619 113.423 19.9596 113.16 20.29C112.897 20.6217 112.644 20.9861 112.423 21.3119C112.202 21.6365 112.011 21.9225 111.748 22.3631C111.579 22.6455 111.38 22.9913 111.215 23.2807V34.416H108.071V20.7178L111.215 18.3588V22.0432ZM99.0327 24.7257C98.4208 24.8651 97.6111 25.0878 96.888 25.2999C96.1649 25.512 95.5295 25.7136 95.0287 25.9175C94.528 26.1226 94.1641 26.3288 93.8411 26.6147C93.5194 26.9007 93.2385 27.2663 93.0502 27.6706C92.863 28.0738 92.767 28.5156 92.7296 29.0335C92.6921 29.5527 92.712 30.1492 92.7775 30.6695C92.8431 31.191 92.9542 31.6363 93.1613 32.0523C93.3696 32.4672 93.6738 32.8539 94.1102 33.0836C94.5479 33.3145 95.1188 33.3883 95.6419 33.318C96.1637 33.2477 96.6387 33.032 97.0869 32.7086C97.535 32.3863 97.9586 31.9551 98.3587 31.5027C98.6969 31.1183 99.021 30.7187 99.2538 30.4363C99.248 30.2171 99.2457 29.9558 99.2421 29.6417C99.2316 28.3925 99.2304 26.3054 99.2293 24.6823C99.1661 24.6964 99.1006 24.7104 99.0327 24.7257ZM99.3287 31.4371C99.1754 31.6152 98.9894 31.8191 98.787 32.0242C98.4032 32.4156 97.9586 32.8164 97.5619 33.1246C97.1653 33.4328 96.8166 33.6484 96.4422 33.8231C96.0678 33.9977 95.6676 34.1313 95.189 34.2203C94.7117 34.3094 94.1547 34.3539 93.5697 34.3129C92.9835 34.2719 92.368 34.1453 91.8087 33.8559C91.2494 33.5664 90.7451 33.1141 90.3707 32.5937C89.9963 32.0746 89.7518 31.4875 89.6558 30.816C89.5587 30.1433 89.6114 29.3863 89.9366 28.689C90.2631 27.9906 90.8633 27.3519 91.5092 26.8726C92.1539 26.3944 92.8431 26.0745 93.5545 25.7933C94.2659 25.5108 95.0007 25.2659 96.0011 24.98C97.0015 24.694 98.2698 24.3671 98.9777 24.1924C99.0713 24.1702 99.1544 24.1491 99.2293 24.1315V23.7436C99.2293 22.0854 99.2293 21.4971 99.1649 20.9651C99.1006 20.4318 98.9719 19.9549 98.7332 19.5482C98.4945 19.1416 98.147 18.8053 97.6801 18.5967C97.2144 18.3881 96.6306 18.3072 96.1122 18.2908C95.5927 18.2744 95.1387 18.3236 94.7655 18.4103C94.3922 18.497 94.0997 18.6213 93.8411 18.7771C93.5826 18.933 93.3579 19.1205 93.1941 19.2951C93.0303 19.4697 92.9273 19.6314 92.8349 19.8271C92.7424 20.0228 92.6594 20.2537 92.6184 20.4424C92.5775 20.6322 92.5775 20.7811 92.3973 20.5701C92.2183 20.3604 91.8579 19.792 91.6742 19.5014C91.4905 19.2107 91.4835 19.199 91.4881 19.1873C91.4928 19.1767 91.5104 19.1674 91.7935 19.0162C92.0779 18.8638 92.6278 18.5697 93.118 18.3588C93.6083 18.1466 94.0412 18.0177 94.5092 17.9381C94.9784 17.8572 95.4839 17.8267 96.0455 17.8232C96.606 17.8197 97.2214 17.8443 97.8229 17.9697C98.4243 18.0951 99.0105 18.3213 99.5265 18.6213C100.041 18.9213 100.486 19.2963 100.851 19.6736C101.215 20.051 101.498 20.4318 101.746 20.8678C101.995 21.3037 102.207 21.7948 102.314 22.3104C102.42 22.8272 102.42 23.3698 102.42 24.3729C102.42 25.3772 102.42 26.8433 102.42 28.3562C102.42 29.8703 102.42 31.4324 102.487 32.3113C102.553 33.1891 102.687 33.3824 102.869 33.543C103.052 33.7035 103.284 33.8313 103.674 33.8899C104.065 33.9473 104.616 33.9367 104.998 33.9016C105.379 33.8664 105.592 33.809 105.721 33.7727C105.849 33.7363 105.895 33.7223 105.921 33.7141C105.947 33.707 105.952 33.7047 105.956 33.7082C105.959 33.7106 105.959 33.7188 105.959 33.7961C105.959 33.8723 105.959 34.0188 105.959 34.1031C105.959 34.1887 105.959 34.2121 105.956 34.225C105.952 34.2367 105.945 34.2379 105.934 34.2391C105.922 34.2403 105.903 34.2426 105.649 34.2707C105.394 34.2989 104.903 34.3539 104.451 34.3715C104 34.3903 103.587 34.3703 103.152 34.3106C102.72 34.252 102.264 34.1524 101.776 33.9485C101.29 33.7457 100.771 33.4375 100.355 33.0484C99.9372 32.6594 99.6224 32.1883 99.4516 31.8109C99.3978 31.6902 99.358 31.5801 99.3287 31.4371ZM63.4804 28.1159C63.4804 28.723 63.4815 29.3218 63.519 29.8421C63.5576 30.3636 63.6336 30.8054 63.8396 31.2918C64.0443 31.7781 64.3778 32.3078 64.7897 32.725C65.2004 33.1422 65.6906 33.4469 66.1434 33.6813C66.5962 33.9168 67.0116 34.0809 67.4574 34.1887C67.9032 34.2977 68.3806 34.3481 68.9984 34.3574C69.6162 34.368 70.3744 34.3352 71.0308 34.1512C71.686 33.9684 72.2406 33.632 72.6782 33.3027C73.1158 32.9723 73.4376 32.6488 73.7418 32.3184C74.0449 31.9867 74.3315 31.648 74.5936 31.2297C74.734 31.0047 74.8686 30.7574 74.9914 30.5125V34.416H78.1366V18.3588L74.9914 20.7178V29.2433C74.9481 29.3453 74.9025 29.4507 74.8522 29.5597C74.6252 30.0578 74.3245 30.6261 73.97 31.1218C73.6166 31.6176 73.2106 32.0394 72.8444 32.3664C72.4781 32.6945 72.1529 32.9289 71.7796 33.1141C71.4064 33.3004 70.9851 33.4375 70.4797 33.5207C69.9754 33.6039 69.3868 33.6332 68.858 33.4668C68.3279 33.2992 67.8576 32.9359 67.5194 32.5539C67.1813 32.1707 66.9753 31.7676 66.8279 31.3316C66.6817 30.8945 66.5927 30.4234 66.5693 29.8808C66.5448 29.3394 66.5845 28.7277 66.6056 28.2226L66.6091 28.1159H66.6255V27.0237V26.8409V18.3588L63.4804 20.7178V27.9378V27.9671V27.9952V28.0234V28.0527V28.0808V28.1089V28.1159ZM85.9432 7.45898L82.7993 9.81801V34.3832H85.9432V7.45898ZM45.0203 18.3623C45.0191 18.5052 45.0191 18.715 45.0191 19.0221C45.0191 19.9502 45.0191 21.7748 45.0191 22.6901C45.0191 23.6065 45.0191 23.6124 45.0191 23.617C45.0191 23.6206 45.0191 23.6217 45.0203 23.6229C45.0226 23.6241 45.0261 23.6241 45.0285 23.6241C45.032 23.6241 45.0343 23.6241 45.0987 23.6241C45.163 23.6241 45.2894 23.6241 45.3596 23.6241C45.4286 23.6241 45.4415 23.6241 45.4485 23.6229C45.4544 23.6217 45.4544 23.6206 45.4544 23.6182C45.4544 23.6159 45.4544 23.6135 45.4544 23.2913C45.4544 22.969 45.4544 22.328 45.5094 21.7174C45.5644 21.1069 45.6732 20.5256 45.844 20.0604C46.0149 19.5963 46.2477 19.2471 46.5344 18.9834C46.821 18.7197 47.1627 18.5404 47.5394 18.408C47.5862 18.3916 47.633 18.3763 47.6798 18.3623H54.3902L44.9244 34.4149H47.9466H48.5913H58.7112H59.0177H59.6987V33.9356H59.6976C59.6999 33.7445 59.7011 33.4668 59.7022 33.059C59.7046 31.8625 59.7093 29.5515 59.7116 28.3937C59.7139 27.237 59.7139 27.2347 59.7069 27.2335C59.6987 27.2335 59.6835 27.2335 59.6215 27.2347C59.5583 27.2347 59.4495 27.2347 59.3851 27.2347C59.322 27.2347 59.3021 27.2347 59.2927 27.2429C59.2834 27.2511 59.2834 27.2675 59.2834 27.5956C59.2834 27.9238 59.2834 28.5648 59.2225 29.3113C59.1617 30.0578 59.0411 30.9097 58.8516 31.5461C58.662 32.1812 58.4046 32.6008 58.0396 32.9137C57.6757 33.2266 57.2053 33.434 56.5606 33.5863C55.9171 33.7387 55.098 33.8371 54.3281 33.8863C53.6179 33.9309 52.9498 33.9344 52.566 33.9356H52.5473H52.5286H52.5099H52.4923H52.4759H52.4584H52.4432H52.4268H52.4116H52.3975H48.8745L58.3403 17.8818H57.781H54.6733H45.0191V18.3623H45.0203ZM34.7121 22.0432C34.746 21.9858 34.7823 21.9237 34.8232 21.8545C35.0947 21.3916 35.5405 20.6311 35.9909 20.0146C36.4402 19.3994 36.8942 18.9283 37.3622 18.5849C37.8303 18.2427 38.3123 18.0283 38.888 17.9252C39.4648 17.8232 40.1365 17.8338 40.6747 17.9181C41.2129 18.0037 41.6178 18.1642 41.9992 18.4314C42.3806 18.6998 42.7375 19.0748 42.961 19.4814C43.1845 19.8869 43.2746 20.3252 43.319 20.5443C43.3635 20.7623 43.3635 20.7623 43.3635 20.7623C43.3635 20.7623 43.3635 20.7623 42.8124 20.9979C42.2601 21.2334 41.1568 21.7057 40.6045 21.9412C40.0534 22.1768 40.0534 22.1768 40.0534 22.1768C40.0534 22.1768 40.0534 22.1768 40.1037 21.8815C40.154 21.5873 40.2546 20.9979 40.2944 20.4963C40.333 19.9947 40.3108 19.5787 40.2289 19.2892C40.147 18.9998 40.0054 18.8357 39.8322 18.7385C39.6591 18.6412 39.4543 18.6107 39.2168 18.6306C38.9804 18.6506 38.7113 18.722 38.4153 18.8521C38.1181 18.9834 37.794 19.1744 37.4933 19.4182C37.1938 19.6619 36.92 19.9596 36.6567 20.29C36.3934 20.6217 36.1407 20.9861 35.9196 21.3119C35.6984 21.6365 35.5077 21.9225 35.2444 22.3631C35.0759 22.6455 34.877 22.9913 34.7121 23.2807V34.416H31.5681V20.7178L34.7121 18.3588V22.0432ZM22.6452 24.7702C22.8195 23.6428 22.9061 22.4522 22.9061 21.1924C22.9061 19.9326 22.8195 18.7361 22.6452 17.6076C22.4697 16.4802 22.1678 15.3751 21.7384 14.2935C21.309 13.2106 20.7661 12.2837 20.1073 11.5044C19.4498 10.7262 18.598 10.0957 17.5508 9.62113C16.5035 9.14534 15.3159 8.91096 13.9879 8.91096C12.6587 8.91096 11.477 9.14534 10.4368 9.62113C9.39659 10.0957 8.54478 10.7262 7.88019 11.5044C7.21559 12.2837 6.66567 13.2106 6.23625 14.2935C5.80684 15.3751 5.50496 16.4802 5.33062 17.6076C5.15512 18.7361 5.06853 19.9326 5.06853 21.1924C5.06853 22.4522 5.15512 23.6428 5.33062 24.7702C5.50496 25.8987 5.80684 27.0038 6.23625 28.0855C6.66567 29.1671 7.21559 30.1011 7.88019 30.8793C8.54478 31.6586 9.39659 32.282 10.4368 32.7578C11.477 33.2324 12.6587 33.4727 13.9879 33.4727C15.3159 33.4727 16.5035 33.2324 17.5508 32.7578C18.598 32.282 19.4498 31.6586 20.1073 30.8793C20.7661 30.1011 21.309 29.1671 21.7384 28.0855C22.1678 27.0038 22.4697 25.8987 22.6452 24.7702Z" fill="#663399" stroke="#663399" stroke-width="0.3" stroke-miterlimit="22.9256"/>
<path fill-rule="evenodd" clip-rule="evenodd" d="M4.55254 2.50315C5.50731 2.16916 6.77332 1.71212 8.03113 1.32774C9.28895 0.944534 10.5374 0.633982 11.9321 0.405463C13.328 0.176944 14.869 0.0304576 16.4146 0.00467596C17.9603 -0.0222776 19.5106 0.0726457 20.9919 0.318743C22.4732 0.564841 23.8855 0.962112 25.4873 1.60431C27.0903 2.24651 28.8805 3.1348 30.8614 4.05825C32.8423 4.98053 35.0128 5.93797 37.0627 6.71025C39.1127 7.48252 41.0409 8.06964 43.1342 8.54309C45.2274 9.0177 47.4833 9.37982 49.9942 9.60014C52.504 9.82045 55.2689 9.8978 57.7915 9.86733C60.3153 9.83686 62.5981 9.69975 65.0389 9.42787C67.4808 9.15599 70.0818 8.75051 72.5015 8.25832C74.7001 7.81183 76.7477 7.29502 77.9447 6.98681L76.915 8.77278L78.4794 10.1861C77.5 10.4334 75.9134 10.8248 74.0168 11.2127C71.8042 11.6662 69.168 12.115 66.8431 12.4162C64.5182 12.7185 62.5034 12.8732 60.1773 12.9728C57.8524 13.0725 55.2174 13.1146 52.6678 13.0068C50.1183 12.899 47.6553 12.64 45.1712 12.2053C42.686 11.7693 40.1797 11.1576 37.3985 10.1568C34.6173 9.15599 31.5599 7.76729 29.2467 6.71025C26.9347 5.65437 25.3668 4.92897 23.9288 4.40279C22.4908 3.87661 21.1815 3.54965 19.7306 3.37621C18.2797 3.20394 16.6861 3.18754 15.3686 3.2473C14.0511 3.30824 13.0086 3.44535 11.8935 3.65747C10.7784 3.86841 9.58966 4.15318 8.22068 4.636C6.85171 5.11882 5.30138 5.80086 4.52563 6.14071L4.15238 6.30594L5.57634 3.83325L3.75339 2.77855C3.99793 2.69651 4.26119 2.60511 4.55254 2.50315Z" fill="#663399" stroke="#663399" stroke-width="0.3"/>
<path d="M38.943 41.1029C39.0717 41.1029 39.184 41.0994 39.2812 41.0912C39.3771 41.0818 39.4602 41.0712 39.528 41.0572V40.1314C39.4906 40.1138 39.4309 40.0962 39.3502 40.0775C39.2683 40.0587 39.156 40.0494 39.0144 40.0494C38.9325 40.0494 38.8482 40.0552 38.7605 40.0669C38.6715 40.0786 38.5908 40.1044 38.5159 40.1443C38.441 40.1829 38.3802 40.2357 38.3334 40.3037C38.2854 40.3716 38.262 40.4619 38.262 40.5744C38.262 40.6728 38.2784 40.756 38.31 40.824C38.3428 40.8908 38.3884 40.9459 38.4469 40.9869C38.5066 41.0267 38.5779 41.0572 38.661 41.0759C38.7441 41.0935 38.8377 41.1029 38.943 41.1029ZM38.9126 38.6489C39.0858 38.6489 39.232 38.6735 39.3525 38.7228C39.473 38.772 39.5702 38.84 39.645 38.9267C39.7188 39.0134 39.7737 39.1165 39.8077 39.2349C39.8416 39.3532 39.858 39.4822 39.858 39.6216V41.2822C39.8241 41.2916 39.7749 41.3033 39.7106 41.315C39.6462 41.3267 39.5713 41.3396 39.4871 41.3525C39.4017 41.3666 39.3081 41.3771 39.2051 41.3865C39.101 41.3947 38.9957 41.3982 38.8868 41.3982C38.7476 41.3982 38.6201 41.383 38.5031 41.3525C38.3861 41.322 38.2843 41.274 38.1977 41.2072C38.1123 41.1416 38.0444 41.0572 37.9953 40.9529C37.9461 40.8498 37.9215 40.7232 37.9215 40.5744C37.9215 40.4314 37.9485 40.3095 38.0023 40.2076C38.0573 40.1056 38.1333 40.0212 38.2316 39.9556C38.3299 39.8888 38.4469 39.8408 38.5826 39.8103C38.7172 39.7798 38.8646 39.7646 39.0249 39.7646C39.0717 39.7646 39.122 39.7669 39.1747 39.7716C39.2273 39.7775 39.2776 39.7833 39.3268 39.7927C39.3759 39.8009 39.418 39.8091 39.4543 39.8173C39.4894 39.8267 39.514 39.8337 39.528 39.8408V39.6779C39.528 39.5865 39.521 39.4974 39.507 39.4107C39.4941 39.3239 39.4637 39.2454 39.418 39.1763C39.3724 39.1071 39.3081 39.0509 39.225 39.0087C39.1419 38.9653 39.0331 38.9443 38.8974 38.9443C38.7043 38.9443 38.5604 38.9583 38.4656 38.9853C38.3697 39.0122 38.3006 39.0345 38.2562 39.0521L38.2105 38.7614C38.269 38.7345 38.358 38.7087 38.4773 38.6853C38.5978 38.6607 38.7429 38.6489 38.9126 38.6489ZM43.0335 40.8697C43.064 40.8931 43.1014 40.9189 43.147 40.9459C43.1938 40.9728 43.2465 40.9986 43.3073 41.022C43.3682 41.0455 43.4349 41.0654 43.5062 41.0806C43.5776 41.0959 43.6513 41.1029 43.7297 41.1029C43.8924 41.1029 44.0293 41.0759 44.1392 41.0197C44.2492 40.9634 44.3382 40.8873 44.406 40.79C44.4739 40.6939 44.523 40.5802 44.5534 40.449C44.5839 40.3189 44.5991 40.1806 44.5991 40.0341C44.5991 39.6884 44.5125 39.4224 44.3393 39.2372C44.1673 39.0521 43.938 38.9595 43.6537 38.9595C43.491 38.9595 43.3588 38.9677 43.2594 38.9829C43.1599 38.9982 43.0838 39.0146 43.0335 39.031V40.8697ZM43.0335 42.2842H42.7024V38.8025C42.8007 38.7685 42.9259 38.7357 43.0792 38.7052C43.2313 38.6747 43.4243 38.6595 43.6583 38.6595C43.8514 38.6595 44.0269 38.6911 44.1849 38.7532C44.3417 38.8165 44.4774 38.9079 44.5909 39.0263C44.7044 39.1446 44.7933 39.2888 44.8553 39.4587C44.9185 39.6286 44.9501 39.8208 44.9501 40.0341C44.9501 40.2345 44.9232 40.4185 44.8705 40.5861C44.8179 40.7548 44.7407 40.899 44.64 41.0197C44.5382 41.1404 44.413 41.2341 44.2656 41.3021C44.1182 41.3701 43.9497 41.4041 43.7601 41.4041C43.587 41.4041 43.4372 41.3795 43.3097 41.3302C43.1833 41.281 43.0909 41.2341 43.0335 41.1896V42.2842ZM48.6311 41.1029C48.7598 41.1029 48.8721 41.0994 48.9693 41.0912C49.0652 41.0818 49.1471 41.0712 49.215 41.0572V40.1314C49.1775 40.1138 49.119 40.0962 49.0371 40.0775C48.9564 40.0587 48.8441 40.0494 48.7013 40.0494C48.6206 40.0494 48.5363 40.0552 48.4474 40.0669C48.3597 40.0786 48.2778 40.1044 48.204 40.1443C48.1292 40.1829 48.0683 40.2357 48.0203 40.3037C47.9735 40.3716 47.949 40.4619 47.949 40.5744C47.949 40.6728 47.9653 40.756 47.9981 40.824C48.0297 40.8908 48.0753 40.9459 48.135 40.9869C48.1947 41.0267 48.266 41.0572 48.3491 41.0759C48.431 41.0935 48.5258 41.1029 48.6311 41.1029ZM48.6007 38.6489C48.7727 38.6489 48.9201 38.6735 49.0395 38.7228C49.16 38.772 49.2571 38.84 49.332 38.9267C49.4069 39.0134 49.4607 39.1165 49.4946 39.2349C49.5285 39.3532 49.5461 39.4822 49.5461 39.6216V41.2822C49.5122 41.2916 49.463 41.3033 49.3987 41.315C49.3343 41.3267 49.2594 41.3396 49.1752 41.3525C49.0898 41.3666 48.9962 41.3771 48.892 41.3865C48.7891 41.3947 48.6838 41.3982 48.5749 41.3982C48.4357 41.3982 48.3082 41.383 48.1912 41.3525C48.0742 41.322 47.9724 41.274 47.8858 41.2072C47.7992 41.1416 47.7313 41.0572 47.6822 40.9529C47.633 40.8498 47.6085 40.7232 47.6085 40.5744C47.6085 40.4314 47.6366 40.3095 47.6904 40.2076C47.7442 40.1056 47.8203 40.0212 47.9185 39.9556C48.0168 39.8888 48.1338 39.8408 48.2696 39.8103C48.4053 39.7798 48.5527 39.7646 48.7118 39.7646C48.7598 39.7646 48.809 39.7669 48.8616 39.7716C48.9143 39.7775 48.9657 39.7845 49.0149 39.7927C49.064 39.8009 49.1062 39.8091 49.1413 39.8173C49.1775 39.8267 49.2021 39.8337 49.215 39.8408V39.6779C49.215 39.5865 49.2091 39.4974 49.1951 39.4107C49.181 39.3239 49.1518 39.2454 49.1062 39.1763C49.0605 39.1071 48.9962 39.0509 48.9131 39.0087C48.83 38.9653 48.72 38.9443 48.5855 38.9443C48.3912 38.9443 48.2473 38.9583 48.1526 38.9853C48.0578 39.0122 47.9887 39.0345 47.9443 39.0521L47.8987 38.7614C47.956 38.7345 48.0449 38.7087 48.1654 38.6853C48.2859 38.6618 48.431 38.6489 48.6007 38.6489ZM53.2177 38.6595C53.3266 38.6595 53.4284 38.6677 53.5255 38.6853C53.6214 38.7017 53.6893 38.7193 53.7256 38.7357L53.66 39.0204C53.6331 39.0075 53.5781 38.9935 53.4951 38.9782C53.412 38.963 53.302 38.9548 53.1674 38.9548C53.0247 38.9548 52.91 38.9653 52.8234 38.9853C52.7369 39.0052 52.6807 39.0228 52.6538 39.0368V41.3431H52.3227V38.8329C52.4081 38.7954 52.5251 38.7568 52.6737 38.7181C52.8234 38.6794 53.0048 38.6595 53.2177 38.6595ZM56.6027 38.7099H57.6499V38.99H56.6027V40.3904C56.6027 40.5404 56.6156 40.6611 56.6402 40.7548C56.6659 40.8486 56.7022 40.9201 56.7502 40.9705C56.797 41.022 56.8555 41.056 56.9233 41.0724C56.99 41.09 57.0649 41.0982 57.1468 41.0982C57.2861 41.0982 57.3972 41.0818 57.4815 41.0501C57.5669 41.0173 57.6324 40.988 57.6804 40.9611L57.7611 41.2353C57.7143 41.2658 57.6312 41.3009 57.513 41.3408C57.3937 41.3795 57.265 41.3982 57.1258 41.3982C56.9631 41.3982 56.8274 41.3771 56.7174 41.3349C56.6074 41.2927 56.5185 41.2283 56.453 41.1416C56.3863 41.0548 56.3395 40.947 56.3126 40.8181C56.2856 40.6892 56.2716 40.5369 56.2716 40.3599V37.9364L56.6027 37.8755V38.7099ZM60.306 38.8025C60.4043 38.7743 60.5318 38.7439 60.6898 38.7099C60.8465 38.6771 61.0513 38.6595 61.3017 38.6595C61.634 38.6595 61.875 38.7568 62.0236 38.9501C62.0412 38.9361 62.0739 38.9138 62.1231 38.881C62.1722 38.8493 62.2342 38.8153 62.308 38.7814C62.3828 38.7474 62.4706 38.7193 62.57 38.6946C62.6707 38.6712 62.7818 38.6595 62.9035 38.6595C63.1036 38.6595 63.2651 38.6888 63.3891 38.7485C63.5119 38.8083 63.6079 38.8915 63.6758 38.9982C63.7436 39.1048 63.7892 39.2337 63.8138 39.3825C63.8372 39.5314 63.8489 39.6943 63.8489 39.8712V41.3431H63.519V39.9779C63.519 39.8056 63.5108 39.6544 63.4956 39.5279C63.4804 39.4001 63.4499 39.2947 63.4043 39.2114C63.3587 39.1294 63.2931 39.0661 63.2089 39.0239C63.1235 38.9806 63.0135 38.9595 62.8778 38.9595C62.776 38.9595 62.6835 38.9689 62.6005 38.9876C62.5174 39.0064 62.446 39.0298 62.3852 39.0568C62.3243 39.0837 62.274 39.1107 62.2342 39.1376C62.1956 39.1657 62.1675 39.1857 62.1512 39.1997C62.1816 39.2876 62.2038 39.3872 62.219 39.4974C62.2342 39.6075 62.2424 39.7236 62.2424 39.8454V41.3431H61.9125V39.9779C61.9125 39.8056 61.9043 39.6544 61.8891 39.5279C61.8739 39.4001 61.8423 39.2947 61.7955 39.2114C61.7475 39.1282 61.6808 39.0661 61.5942 39.0239C61.5076 38.9806 61.393 38.9595 61.2514 38.9595C61.0923 38.9595 60.9565 38.9689 60.8465 38.9853C60.7366 39.0017 60.6664 39.0181 60.6359 39.031V41.3431H60.306V38.8025ZM66.6032 40.0236C66.6032 39.7927 66.636 39.5923 66.7027 39.4212C66.7682 39.2489 66.8548 39.106 66.9613 38.99C67.0689 38.8751 67.1906 38.7896 67.3275 38.7333C67.4656 38.6771 67.606 38.6489 67.7522 38.6489C68.074 38.6489 68.3314 38.7544 68.5221 38.9653C68.714 39.1751 68.81 39.4997 68.81 39.938C68.81 39.965 68.8088 39.9919 68.8076 40.0189C68.8053 40.0458 68.803 40.0716 68.7995 40.0951H66.9543C66.9648 40.4173 67.0444 40.6658 67.193 40.8392C67.3416 41.0115 67.5791 41.0982 67.9044 41.0982C68.0845 41.0982 68.2273 41.0818 68.3314 41.0478C68.4367 41.0138 68.5128 40.9845 68.5608 40.9611L68.6216 41.2459C68.5736 41.2728 68.4847 41.3056 68.3548 41.3431C68.2238 41.3806 68.0705 41.3982 67.895 41.3982C67.6645 41.3982 67.4679 41.3642 67.3053 41.2974C67.1426 41.2294 67.0081 41.1345 66.9028 41.0115C66.7986 40.8896 66.7214 40.7443 66.6746 40.5767C66.6266 40.4091 66.6032 40.224 66.6032 40.0236ZM68.4695 39.815C68.4625 39.5407 68.3981 39.3263 68.2764 39.1739C68.1536 39.0216 67.9816 38.9443 67.7569 38.9443C67.6388 38.9443 67.5334 38.9689 67.4398 39.0157C67.3462 39.0638 67.2655 39.1271 67.1953 39.2068C67.1263 39.2864 67.0724 39.379 67.0327 39.4845C66.994 39.59 66.9706 39.7001 66.9648 39.815H68.4695ZM71.5702 38.8025C71.6684 38.7743 71.8007 38.7439 71.9668 38.7099C72.133 38.6771 72.3365 38.6595 72.5764 38.6595C72.7765 38.6595 72.9438 38.6888 73.0772 38.7462C73.2118 38.8036 73.3182 38.8857 73.3978 38.9935C73.4774 39.1001 73.5335 39.2279 73.5675 39.3779C73.6014 39.5267 73.6189 39.6919 73.6189 39.8712V41.3431H73.2878V39.9779C73.2878 39.7915 73.2761 39.6333 73.2504 39.5044C73.2246 39.3755 73.1825 39.27 73.1228 39.1892C73.0643 39.1071 72.9859 39.0486 72.8888 39.0134C72.7929 38.9782 72.6712 38.9595 72.5261 38.9595C72.3693 38.9595 72.2347 38.9689 72.1213 38.9853C72.0078 39.0029 71.934 39.0181 71.9001 39.031V41.3431H71.5702V38.8025ZM76.819 38.7099H77.8651V38.99H76.819V40.3904C76.819 40.5404 76.8307 40.6611 76.8565 40.7548C76.8822 40.8486 76.9185 40.9201 76.9665 40.9705C77.0133 41.022 77.0706 41.056 77.1385 41.0724C77.2063 41.09 77.2812 41.0982 77.362 41.0982C77.5012 41.0982 77.6135 41.0818 77.6978 41.0501C77.7832 41.0173 77.8487 40.988 77.8967 40.9611L77.9774 41.2353C77.9306 41.2658 77.8475 41.3009 77.7282 41.3408C77.61 41.3795 77.4813 41.3982 77.3421 41.3982C77.1794 41.3982 77.0425 41.3771 76.9325 41.3349C76.8226 41.2927 76.7348 41.2283 76.6681 41.1416C76.6026 41.0548 76.5558 40.947 76.5289 40.8181C76.502 40.6892 76.4879 40.5369 76.4879 40.3599V37.9364L76.819 37.8755V38.7099ZM81.0828 41.1087C81.2723 41.1087 81.4291 41.0771 81.5531 41.0138C81.6771 40.9517 81.7392 40.8451 81.7392 40.6962C81.7392 40.6248 81.7275 40.5638 81.7052 40.5122C81.6842 40.4619 81.6467 40.4162 81.5964 40.3751C81.5461 40.3341 81.4782 40.2954 81.3952 40.2579C81.3121 40.2204 81.2103 40.1771 81.0874 40.1255C80.9891 40.0845 80.8967 40.0435 80.8078 40.0013C80.72 39.9591 80.6416 39.9099 80.5749 39.8536C80.5071 39.7974 80.4521 39.7306 80.4123 39.6521C80.3714 39.5747 80.3503 39.4786 80.3503 39.3673C80.3503 39.1529 80.431 38.9806 80.5925 38.8482C80.7528 38.7157 80.9739 38.6489 81.2559 38.6489C81.4349 38.6489 81.5835 38.6642 81.7005 38.6946C81.8176 38.7251 81.8995 38.7532 81.9474 38.7767L81.8714 39.072C81.8304 39.0521 81.7614 39.0239 81.6654 38.99C81.5683 38.9571 81.4268 38.9396 81.2407 38.9396C81.1658 38.9396 81.0956 38.9478 81.0289 38.9618C80.9634 38.9782 80.9049 39.0017 80.8546 39.0333C80.8031 39.0661 80.7633 39.1071 80.7317 39.1564C80.7013 39.2056 80.6861 39.2665 80.6861 39.338C80.6861 39.4083 80.7001 39.4693 80.7271 39.5208C80.754 39.5724 80.7937 39.6181 80.8464 39.6568C80.8991 39.6954 80.9634 39.7329 81.0395 39.7658C81.1155 39.7997 81.2033 39.8372 81.3016 39.8771C81.4033 39.9181 81.5005 39.9591 81.5941 40.0013C81.6877 40.0435 81.7696 40.0951 81.8398 40.1536C81.9112 40.2134 81.9685 40.2849 82.013 40.3681C82.0574 40.4513 82.0796 40.5556 82.0796 40.681C82.0796 40.9189 81.9907 41.0982 81.8129 41.2201C81.6339 41.3431 81.3916 41.4041 81.0828 41.4041C80.8522 41.4041 80.6767 41.3841 80.5539 41.3455C80.4322 41.3068 80.3503 41.2763 80.3105 41.2564L80.3971 40.9552C80.4065 40.9623 80.4287 40.974 80.4626 40.9892C80.4966 41.0044 80.5422 41.0209 80.5995 41.0396C80.658 41.0584 80.7259 41.0748 80.8054 41.0876C80.885 41.1017 80.9774 41.1087 81.0828 41.1087Z" fill="#373435"/>
<path fill-rule="evenodd" clip-rule="evenodd" d="M45.0203 47.8754L43.4372 49.4223C44.633 49.6052 46.6818 49.911 48.8803 50.1747C51.3 50.4665 53.9011 50.7056 56.3418 50.8673C58.7837 51.0278 61.0665 51.1087 63.5892 51.1274C66.113 51.145 68.8778 51.0993 71.3876 50.9692C73.8986 50.8392 76.1544 50.6247 78.2477 50.3434C80.3398 50.0634 82.2692 49.7165 84.3191 49.2594C86.3691 48.8024 88.5384 48.2352 90.5193 47.6891C92.5002 47.143 94.2916 46.618 95.8934 46.2371C97.4952 45.8574 98.9075 45.6231 100.389 45.4766C101.87 45.3313 103.42 45.275 104.966 45.2914C106.513 45.3067 108.054 45.3934 109.449 45.5281C110.844 45.6629 112.093 45.8469 113.351 46.0742C114.607 46.3016 116.204 46.6403 116.828 46.7692C117.452 46.8993 117.384 46.884 117.628 46.9321C117.138 46.3496 116.648 45.766 116.395 45.4637C116.142 45.1625 116.127 45.1426 116.12 45.132C116.112 45.1227 116.112 45.1227 116.365 44.8918C116.618 44.6609 117.123 44.1992 117.628 43.7375C117.384 43.6883 117.452 43.7035 116.828 43.5746C116.204 43.4457 114.607 43.1058 113.351 42.8797C112.093 42.6523 110.844 42.4683 109.449 42.3324C108.054 42.1976 106.513 42.1109 104.966 42.0957C103.42 42.0804 101.87 42.1367 100.389 42.282C98.9075 42.4273 97.4952 42.6617 95.8934 43.0426C94.2916 43.4223 92.5002 43.9484 90.5193 44.4945C88.5384 45.0406 86.3691 45.6067 84.3191 46.0637C82.2692 46.5207 80.3398 46.8676 78.2477 47.1489C76.1544 47.429 73.8986 47.6434 71.3876 47.7735C68.8778 47.9036 66.113 47.9493 63.5892 47.9317C61.0665 47.9141 58.7837 47.8321 56.3418 47.6715C53.9011 47.511 51.3 47.2707 48.8803 46.9801C46.6818 46.7153 44.633 46.4094 43.4372 46.2278L45.0203 47.8754Z" fill="#663399" stroke="#663399" stroke-width="0.3" stroke-miterlimit="22.9256"/>
</g>
<defs>
<clipPath id="clip0_518_13955">
<rect width="120" height="51.2" fill="white"/>
</clipPath>
</defs>
</svg>
