<svg width="500" height="214" viewBox="0 0 500 214" fill="none" xmlns="http://www.w3.org/2000/svg">
<g clip-path="url(#clip0_518_13486)">
<path d="M38.4845 36.6146C44.6761 34.4944 51.2723 33.449 58.2829 33.449C65.2887 33.449 71.9142 34.4944 78.135 36.6146C84.3558 38.7347 89.7284 41.5975 94.2526 45.2125C98.7768 48.8275 102.692 52.9897 106.021 57.699C109.346 62.4083 111.857 67.4155 113.524 72.7013C115.187 77.9822 116.006 83.2923 116.006 88.6269C116.006 93.9615 115.187 99.2668 113.524 104.553C111.857 109.833 109.346 114.816 106.021 119.53C102.692 124.24 98.7768 128.402 94.2526 132.012C89.7284 135.627 84.3558 138.495 78.135 140.61C71.9142 142.73 65.2887 143.8 58.2829 143.8C51.2723 143.8 44.6761 142.73 38.4845 140.61C32.2929 138.495 26.9204 135.627 22.3669 132.012C17.8134 128.402 13.8693 124.24 10.5395 119.53C7.21461 114.816 4.7331 109.833 3.06577 104.553C1.4033 99.2668 0.555008 93.9615 0.555008 88.6269C0.555008 83.2923 1.4033 77.9822 3.06577 72.7013C4.7331 67.4155 7.21461 62.4083 10.5395 57.699C13.8693 52.9897 17.8134 48.8275 22.3669 45.2125C26.9204 41.5975 32.2929 38.7347 38.4845 36.6146ZM463.397 92.1736C463.539 91.9342 463.69 91.6753 463.861 91.387C464.992 89.4574 466.849 86.2869 468.726 83.7173C470.598 81.1526 472.49 79.1888 474.44 77.7574C476.39 76.331 478.394 75.437 480.797 75.0071C483.201 74.5821 485.999 74.626 488.242 74.9778C490.484 75.3344 492.171 76.0037 493.76 77.1175C495.35 78.2362 496.837 79.7994 497.768 81.4946C498.699 83.1849 499.07 85.0119 499.26 85.9254C499.445 86.8341 499.445 86.8341 499.445 86.8341C499.445 86.8341 499.445 86.8341 497.149 87.816C494.848 88.7979 490.25 90.7666 487.949 91.7486C485.653 92.7305 485.653 92.7305 485.653 92.7305C485.653 92.7305 485.653 92.7305 485.863 91.4994C486.072 90.2732 486.491 87.816 486.657 85.7251C486.818 83.6343 486.725 81.9001 486.384 80.6934C486.043 79.4868 485.453 78.8029 484.732 78.3974C484.01 77.9919 483.157 77.8649 482.167 77.948C481.182 78.031 480.061 78.329 478.828 78.8713C477.589 79.4184 476.234 80.2147 474.986 81.2308C473.738 82.2469 472.597 83.4877 471.5 84.8654C470.403 86.2479 469.35 87.7671 468.429 89.1252C467.507 90.4784 466.713 91.6704 465.616 93.5072C464.914 94.6845 464.085 96.1257 463.397 97.3323V143.751H450.298V86.6484L463.397 76.8146V92.1736ZM412.636 103.356C410.086 103.937 406.713 104.865 403.7 105.749C400.687 106.634 398.04 107.474 395.953 108.324C393.866 109.179 392.35 110.039 391.005 111.231C389.664 112.423 388.494 113.947 387.709 115.632C386.929 117.313 386.529 119.154 386.373 121.314C386.217 123.478 386.3 125.964 386.573 128.133C386.846 130.307 387.309 132.164 388.172 133.898C389.04 135.627 390.308 137.239 392.126 138.197C393.949 139.159 396.328 139.467 398.508 139.174C400.682 138.881 402.661 137.982 404.529 136.633C406.396 135.29 408.161 133.492 409.828 131.607C411.237 130.004 412.587 128.338 413.558 127.161C413.533 126.248 413.523 125.158 413.509 123.849C413.465 118.641 413.46 109.941 413.455 103.175C413.192 103.234 412.919 103.292 412.636 103.356ZM413.87 131.333C413.231 132.076 412.456 132.926 411.612 133.781C410.013 135.412 408.161 137.083 406.508 138.368C404.855 139.652 403.402 140.551 401.842 141.279C400.282 142.007 398.615 142.564 396.621 142.935C394.632 143.307 392.311 143.492 389.874 143.321C387.431 143.15 384.867 142.623 382.536 141.416C380.206 140.209 378.105 138.324 376.545 136.155C374.985 133.991 373.966 131.543 373.566 128.744C373.161 125.94 373.381 122.784 374.736 119.877C376.096 116.966 378.597 114.303 381.288 112.305C383.975 110.312 386.846 108.979 389.81 107.806C392.774 106.629 395.836 105.608 400.004 104.416C404.173 103.224 409.458 101.861 412.407 101.133C412.797 101.04 413.143 100.952 413.455 100.879V99.2619C413.455 92.3494 413.455 89.8971 413.187 87.6792C412.919 85.4565 412.383 83.4682 411.388 81.773C410.394 80.0779 408.946 78.6759 407 77.8063C405.06 76.9367 402.627 76.5997 400.468 76.5313C398.303 76.4629 396.411 76.668 394.856 77.0296C393.301 77.3911 392.082 77.9089 391.005 78.5586C389.927 79.2083 388.991 79.99 388.309 80.7179C387.626 81.4457 387.197 82.1199 386.812 82.9357C386.427 83.7515 386.081 84.7139 385.91 85.5004C385.739 86.2918 385.739 86.9122 384.989 86.0329C384.243 85.1585 382.741 82.7892 381.976 81.5776C381.21 80.3661 381.181 80.3173 381.201 80.2684C381.22 80.2244 381.293 80.1854 382.473 79.5552C383.658 78.9201 385.949 77.6939 387.992 76.8146C390.035 75.9304 391.838 75.393 393.788 75.0608C395.743 74.7238 397.85 74.5967 400.19 74.5821C402.525 74.5674 405.089 74.67 407.595 75.1927C410.101 75.7154 412.544 76.6583 414.694 77.9089C416.839 79.1595 418.691 80.7227 420.212 82.2958C421.729 83.8688 422.908 85.4565 423.942 87.2737C424.98 89.091 425.863 91.1379 426.306 93.2874C426.75 95.4417 426.75 97.7036 426.75 101.885C426.75 106.072 426.75 112.183 426.75 118.49C426.75 124.802 426.75 131.314 427.028 134.977C427.306 138.636 427.862 139.442 428.622 140.112C429.383 140.781 430.348 141.313 431.976 141.558C433.605 141.797 435.901 141.753 437.49 141.607C439.08 141.46 439.967 141.221 440.503 141.069C441.039 140.918 441.23 140.859 441.337 140.825C441.444 140.796 441.468 140.786 441.483 140.8C441.498 140.81 441.498 140.844 441.498 141.167C441.498 141.484 441.498 142.095 441.498 142.447C441.498 142.803 441.498 142.901 441.483 142.955C441.468 143.004 441.439 143.009 441.39 143.013C441.342 143.018 441.264 143.028 440.206 143.145C439.143 143.263 437.095 143.492 435.214 143.565C433.332 143.644 431.611 143.561 429.802 143.311C427.998 143.067 426.102 142.652 424.069 141.802C422.041 140.957 419.881 139.672 418.145 138.05C416.405 136.428 415.093 134.464 414.382 132.891C414.157 132.388 413.992 131.929 413.87 131.333ZM264.501 117.488C264.501 120.019 264.506 122.515 264.662 124.684C264.823 126.858 265.14 128.7 265.998 130.727C266.851 132.755 268.241 134.963 269.957 136.702C271.668 138.441 273.711 139.711 275.598 140.688C277.484 141.67 279.215 142.354 281.072 142.803C282.93 143.258 284.919 143.468 287.493 143.507C290.067 143.551 293.227 143.414 295.962 142.647C298.692 141.885 301.003 140.483 302.826 139.11C304.649 137.733 305.99 136.384 307.257 135.007C308.52 133.624 309.715 132.212 310.807 130.468C311.392 129.53 311.952 128.5 312.464 127.479V143.751H325.569V76.8146L312.464 86.6484V122.188C312.284 122.613 312.094 123.053 311.884 123.507C310.938 125.583 309.685 127.953 308.208 130.019C306.736 132.085 305.044 133.844 303.518 135.207C301.992 136.575 300.637 137.552 299.082 138.324C297.526 139.1 295.771 139.672 293.665 140.019C291.564 140.366 289.112 140.488 286.908 139.794C284.7 139.096 282.74 137.581 281.331 135.989C279.922 134.391 279.064 132.711 278.45 130.893C277.84 129.071 277.47 127.107 277.372 124.846C277.27 122.589 277.436 120.039 277.523 117.933L277.538 117.488H277.606V112.936V112.173V76.8146L264.501 86.6484V116.746V116.868V116.985V117.103V117.225V117.342V117.459V117.488ZM358.097 31.3777L344.997 41.2115V143.614H358.097V31.3777ZM187.585 76.8293C187.58 77.4252 187.58 78.2997 187.58 79.5796C187.58 83.4487 187.58 91.0549 187.58 94.8702C187.58 98.6904 187.58 98.7148 187.58 98.7343C187.58 98.749 187.58 98.7539 187.585 98.7588C187.594 98.7636 187.609 98.7636 187.619 98.7636C187.633 98.7636 187.643 98.7636 187.911 98.7636C188.179 98.7636 188.706 98.7636 188.998 98.7636C189.286 98.7636 189.34 98.7636 189.369 98.7588C189.393 98.7539 189.393 98.749 189.393 98.7392C189.393 98.7295 189.393 98.7197 189.393 97.3763C189.393 96.0328 189.393 93.3607 189.622 90.8155C189.852 88.2703 190.305 85.8473 191.017 83.9079C191.729 81.9733 192.699 80.5176 193.893 79.4184C195.088 78.3192 196.511 77.5718 198.081 77.0198C198.276 76.9514 198.471 76.8879 198.666 76.8293H226.626L187.185 143.746H199.778H202.464H244.63H245.907H248.745V141.748H248.74C248.75 140.952 248.754 139.794 248.759 138.094C248.769 133.106 248.789 123.473 248.798 118.646C248.808 113.825 248.808 113.815 248.779 113.81C248.745 113.81 248.681 113.81 248.423 113.815C248.16 113.815 247.706 113.815 247.438 113.815C247.175 113.815 247.092 113.815 247.053 113.849C247.014 113.883 247.014 113.952 247.014 115.319C247.014 116.687 247.014 119.36 246.76 122.471C246.507 125.583 246.005 129.135 245.215 131.787C244.425 134.435 243.353 136.184 241.832 137.488C240.315 138.793 238.355 139.657 235.669 140.292C232.988 140.928 229.575 141.338 226.367 141.543C223.408 141.729 220.624 141.743 219.025 141.748H218.947H218.869H218.791H218.718H218.65H218.577H218.513H218.445H218.382H218.323H203.644L243.084 74.8263H240.754H227.805H187.58V76.8293H187.585ZM144.634 92.1736C144.775 91.9342 144.926 91.6753 145.097 91.387C146.228 89.4574 148.085 86.2869 149.962 83.7173C151.834 81.1526 153.726 79.1888 155.676 77.7574C157.626 76.331 159.635 75.437 162.033 75.0071C164.437 74.5821 167.235 74.626 169.478 74.9778C171.72 75.3344 173.407 76.0037 174.997 77.1175C176.586 78.2362 178.073 79.7994 179.004 81.4946C179.935 83.1849 180.311 85.0119 180.496 85.9254C180.681 86.8341 180.681 86.8341 180.681 86.8341C180.681 86.8341 180.681 86.8341 178.385 87.816C176.084 88.7979 171.486 90.7666 169.185 91.7486C166.889 92.7305 166.889 92.7305 166.889 92.7305C166.889 92.7305 166.889 92.7305 167.099 91.4994C167.308 90.2732 167.728 87.816 167.893 85.7251C168.054 83.6343 167.962 81.9001 167.62 80.6934C167.279 79.4868 166.689 78.8029 165.968 78.3974C165.246 77.9919 164.393 77.8649 163.403 77.948C162.418 78.031 161.297 78.329 160.064 78.8713C158.825 79.4184 157.475 80.2147 156.222 81.2308C154.974 82.2469 153.833 83.4877 152.736 84.8654C151.639 86.2479 150.586 87.7671 149.665 89.1252C148.743 90.4784 147.949 91.6704 146.852 93.5072C146.15 94.6845 145.321 96.1257 144.634 97.3323V143.751H131.534V86.6484L144.634 76.8146V92.1736ZM94.355 103.541C95.0814 98.8418 95.4422 93.8785 95.4422 88.6269C95.4422 83.3754 95.0814 78.3876 94.355 73.6832C93.6237 68.9837 92.3659 64.377 90.5766 59.868C88.7874 55.3541 86.5253 51.4899 83.7805 48.2413C81.0406 44.9975 77.4915 42.3693 73.1281 40.3908C68.7647 38.4074 63.8164 37.4304 58.2829 37.4304C52.7446 37.4304 47.8206 38.4074 43.4865 40.3908C39.1524 42.3693 35.6032 44.9975 32.8341 48.2413C30.0649 51.4899 27.7736 55.3541 25.9844 59.868C24.1951 64.377 22.9373 68.9837 22.2109 73.6832C21.4796 78.3876 21.1188 83.3754 21.1188 88.6269C21.1188 93.8785 21.4796 98.8418 22.2109 103.541C22.9373 108.246 24.1951 112.852 25.9844 117.361C27.7736 121.87 30.0649 125.764 32.8341 129.008C35.6032 132.256 39.1524 134.855 43.4865 136.839C47.8206 138.817 52.7446 139.819 58.2829 139.819C63.8164 139.819 68.7647 138.817 73.1281 136.839C77.4915 134.855 81.0406 132.256 83.7805 129.008C86.5253 125.764 88.7874 121.87 90.5766 117.361C92.3659 112.852 93.6237 108.246 94.355 103.541Z" fill="white" stroke="white" stroke-width="1.16031" stroke-miterlimit="22.9256"/>
<path fill-rule="evenodd" clip-rule="evenodd" d="M18.9689 10.7183C22.9471 9.32604 28.2221 7.42083 33.463 5.81849C38.7039 4.22104 43.9058 2.92648 49.7171 1.97387C55.5333 1.02126 61.954 0.410616 68.3942 0.303142C74.8344 0.190784 81.2941 0.586482 87.4662 1.61237C93.6383 2.63825 99.5227 4.29432 106.197 6.97139C112.876 9.64846 120.335 13.3514 128.589 17.2009C136.843 21.0456 145.886 25.0367 154.428 28.2561C162.969 31.4754 171.004 33.9228 179.726 35.8965C188.447 37.8749 197.847 39.3845 208.309 40.3029C218.767 41.2213 230.287 41.5437 240.798 41.4167C251.314 41.2897 260.825 40.7181 270.995 39.5848C281.17 38.4514 292.008 36.7611 302.09 34.7094C311.25 32.8481 319.782 30.6938 324.769 29.409L320.479 36.8539L326.997 42.7455C322.917 43.7762 316.306 45.4079 308.403 47.0249C299.184 48.9154 288.2 50.7864 278.513 52.0419C268.826 53.3023 260.431 53.9471 250.739 54.3624C241.051 54.7776 230.072 54.9535 219.449 54.504C208.826 54.0546 198.564 52.975 188.213 51.1626C177.858 49.3453 167.416 46.7953 155.827 42.6233C144.239 38.4514 131.5 32.6625 121.861 28.2561C112.228 23.8545 105.695 20.8306 99.7031 18.6372C93.7114 16.4437 88.256 15.0808 82.2107 14.3578C76.1654 13.6396 69.5253 13.5713 64.0357 13.8204C58.5462 14.0744 54.2023 14.646 49.5562 15.5302C44.9101 16.4095 39.9568 17.5966 34.2528 19.6093C28.5487 21.622 22.089 24.4652 18.8567 25.8819L17.3015 26.5707L23.2347 16.263L15.6391 11.8663C16.658 11.5244 17.7549 11.1433 18.9689 10.7183Z" fill="white"/>
<path d="M162.262 171.626C162.799 171.626 163.267 171.611 163.671 171.577C164.071 171.538 164.417 171.494 164.7 171.435V167.576C164.544 167.503 164.295 167.43 163.959 167.351C163.618 167.273 163.15 167.234 162.56 167.234C162.219 167.234 161.868 167.259 161.502 167.307C161.131 167.356 160.795 167.464 160.483 167.63C160.171 167.791 159.917 168.011 159.722 168.294C159.523 168.578 159.425 168.954 159.425 169.423C159.425 169.833 159.493 170.18 159.625 170.463C159.761 170.742 159.952 170.971 160.195 171.142C160.444 171.308 160.741 171.435 161.088 171.514C161.434 171.587 161.824 171.626 162.262 171.626ZM162.136 161.396C162.857 161.396 163.467 161.499 163.969 161.704C164.471 161.909 164.876 162.193 165.188 162.554C165.495 162.916 165.724 163.346 165.865 163.839C166.007 164.332 166.075 164.87 166.075 165.451V172.373C165.934 172.412 165.729 172.461 165.461 172.51C165.192 172.559 164.88 172.613 164.529 172.666C164.174 172.725 163.784 172.769 163.355 172.808C162.921 172.842 162.482 172.857 162.028 172.857C161.448 172.857 160.917 172.793 160.429 172.666C159.942 172.539 159.518 172.339 159.157 172.061C158.801 171.787 158.518 171.435 158.313 171.001C158.109 170.571 158.006 170.043 158.006 169.423C158.006 168.827 158.118 168.319 158.343 167.894C158.572 167.469 158.889 167.117 159.298 166.843C159.708 166.565 160.195 166.365 160.761 166.238C161.322 166.111 161.936 166.047 162.604 166.047C162.799 166.047 163.008 166.057 163.228 166.076C163.447 166.101 163.657 166.125 163.862 166.164C164.066 166.198 164.242 166.233 164.393 166.267C164.539 166.306 164.642 166.335 164.7 166.365V165.686C164.7 165.304 164.671 164.933 164.612 164.572C164.559 164.21 164.432 163.883 164.242 163.595C164.052 163.306 163.784 163.072 163.437 162.896C163.091 162.715 162.638 162.627 162.072 162.627C161.268 162.627 160.668 162.686 160.273 162.798C159.874 162.911 159.586 163.004 159.401 163.077L159.211 161.865C159.454 161.753 159.825 161.645 160.322 161.548C160.824 161.445 161.429 161.396 162.136 161.396ZM179.306 170.654C179.433 170.751 179.589 170.859 179.779 170.971C179.974 171.084 180.194 171.191 180.447 171.289C180.701 171.387 180.979 171.47 181.276 171.533C181.573 171.597 181.88 171.626 182.207 171.626C182.885 171.626 183.455 171.514 183.913 171.279C184.372 171.045 184.742 170.727 185.025 170.322C185.308 169.921 185.513 169.447 185.639 168.9C185.766 168.358 185.829 167.781 185.829 167.171C185.829 165.729 185.469 164.621 184.747 163.849C184.03 163.077 183.075 162.691 181.89 162.691C181.213 162.691 180.662 162.725 180.247 162.789C179.833 162.852 179.516 162.921 179.306 162.989V170.654ZM179.306 176.55H177.927V162.036C178.336 161.895 178.858 161.758 179.496 161.631C180.13 161.504 180.935 161.44 181.91 161.44C182.714 161.44 183.445 161.572 184.104 161.831C184.757 162.095 185.322 162.476 185.795 162.969C186.268 163.463 186.639 164.064 186.897 164.772C187.16 165.48 187.292 166.282 187.292 167.171C187.292 168.006 187.18 168.773 186.96 169.472C186.741 170.175 186.419 170.776 186 171.279C185.576 171.782 185.054 172.173 184.44 172.456C183.826 172.74 183.124 172.881 182.334 172.881C181.612 172.881 180.988 172.779 180.457 172.574C179.93 172.368 179.545 172.173 179.306 171.987V176.55ZM202.63 171.626C203.166 171.626 203.634 171.611 204.038 171.577C204.438 171.538 204.78 171.494 205.062 171.435V167.576C204.906 167.503 204.663 167.43 204.321 167.351C203.985 167.273 203.517 167.234 202.922 167.234C202.586 167.234 202.235 167.259 201.864 167.307C201.498 167.356 201.157 167.464 200.85 167.63C200.538 167.791 200.285 168.011 200.085 168.294C199.89 168.578 199.787 168.954 199.787 169.423C199.787 169.833 199.856 170.18 199.992 170.463C200.124 170.742 200.314 170.971 200.562 171.142C200.811 171.308 201.108 171.435 201.455 171.514C201.796 171.587 202.191 171.626 202.63 171.626ZM202.503 161.396C203.219 161.396 203.834 161.499 204.331 161.704C204.833 161.909 205.238 162.193 205.55 162.554C205.862 162.916 206.086 163.346 206.227 163.839C206.369 164.332 206.442 164.87 206.442 165.451V172.373C206.301 172.412 206.096 172.461 205.828 172.51C205.56 172.559 205.248 172.613 204.897 172.666C204.541 172.725 204.151 172.769 203.717 172.808C203.288 172.842 202.849 172.857 202.396 172.857C201.815 172.857 201.284 172.793 200.796 172.666C200.309 172.539 199.885 172.339 199.524 172.061C199.163 171.787 198.88 171.435 198.676 171.001C198.471 170.571 198.369 170.043 198.369 169.423C198.369 168.827 198.486 168.319 198.71 167.894C198.934 167.469 199.251 167.117 199.661 166.843C200.07 166.565 200.558 166.365 201.123 166.238C201.689 166.111 202.303 166.047 202.966 166.047C203.166 166.047 203.371 166.057 203.59 166.076C203.809 166.101 204.024 166.13 204.229 166.164C204.433 166.198 204.609 166.233 204.755 166.267C204.906 166.306 205.009 166.335 205.062 166.365V165.686C205.062 165.304 205.038 164.933 204.979 164.572C204.921 164.21 204.799 163.883 204.609 163.595C204.419 163.306 204.151 163.072 203.804 162.896C203.458 162.715 203 162.627 202.439 162.627C201.63 162.627 201.03 162.686 200.636 162.798C200.241 162.911 199.953 163.004 199.768 163.077L199.578 161.865C199.817 161.753 200.187 161.645 200.689 161.548C201.191 161.45 201.796 161.396 202.503 161.396ZM221.741 161.44C222.194 161.44 222.618 161.474 223.023 161.548C223.423 161.616 223.705 161.689 223.856 161.758L223.583 162.945C223.471 162.891 223.242 162.833 222.896 162.769C222.55 162.706 222.092 162.671 221.531 162.671C220.936 162.671 220.458 162.715 220.098 162.798C219.737 162.881 219.503 162.955 219.391 163.013V172.627H218.011V162.163C218.367 162.007 218.854 161.846 219.474 161.685C220.098 161.523 220.853 161.44 221.741 161.44ZM235.845 161.65H240.208V162.818H235.845V168.656C235.845 169.281 235.898 169.784 236.001 170.175C236.108 170.566 236.259 170.864 236.459 171.074C236.654 171.289 236.898 171.43 237.18 171.499C237.458 171.572 237.77 171.606 238.112 171.606C238.692 171.606 239.155 171.538 239.506 171.406C239.862 171.269 240.135 171.147 240.335 171.035L240.671 172.178C240.476 172.305 240.13 172.451 239.638 172.618C239.14 172.779 238.604 172.857 238.024 172.857C237.346 172.857 236.781 172.769 236.322 172.593C235.864 172.417 235.494 172.149 235.221 171.787C234.943 171.426 234.748 170.976 234.636 170.439C234.523 169.901 234.465 169.266 234.465 168.529V158.426L235.845 158.172V161.65ZM251.275 162.036C251.684 161.919 252.216 161.792 252.874 161.65C253.527 161.514 254.38 161.44 255.424 161.44C256.808 161.44 257.813 161.846 258.432 162.652C258.505 162.593 258.641 162.5 258.846 162.364C259.051 162.232 259.309 162.09 259.616 161.948C259.928 161.807 260.294 161.689 260.708 161.587C261.128 161.489 261.591 161.44 262.098 161.44C262.932 161.44 263.604 161.562 264.121 161.812C264.633 162.061 265.033 162.408 265.316 162.852C265.598 163.297 265.788 163.834 265.891 164.454C265.988 165.075 266.037 165.754 266.037 166.492V172.627H264.662V166.936C264.662 166.218 264.628 165.588 264.565 165.06C264.501 164.528 264.375 164.088 264.184 163.741C263.994 163.399 263.721 163.135 263.37 162.96C263.014 162.779 262.556 162.691 261.991 162.691C261.566 162.691 261.181 162.73 260.835 162.808C260.489 162.886 260.192 162.984 259.938 163.096C259.685 163.209 259.475 163.321 259.309 163.433C259.148 163.551 259.031 163.634 258.963 163.692C259.09 164.059 259.182 164.474 259.246 164.933C259.309 165.392 259.343 165.876 259.343 166.384V172.627H257.969V166.936C257.969 166.218 257.934 165.588 257.871 165.06C257.808 164.528 257.676 164.088 257.481 163.741C257.281 163.394 257.003 163.135 256.642 162.96C256.282 162.779 255.804 162.691 255.214 162.691C254.551 162.691 253.985 162.73 253.527 162.798C253.069 162.867 252.776 162.935 252.65 162.989V172.627H251.275V162.036ZM277.513 167.127C277.513 166.164 277.65 165.329 277.928 164.616C278.201 163.898 278.562 163.302 279.005 162.818C279.454 162.339 279.961 161.983 280.531 161.748C281.107 161.514 281.692 161.396 282.301 161.396C283.642 161.396 284.714 161.836 285.509 162.715C286.308 163.59 286.708 164.943 286.708 166.77C286.708 166.882 286.703 166.995 286.698 167.107C286.689 167.219 286.679 167.327 286.664 167.425H278.976C279.02 168.768 279.351 169.804 279.971 170.527C280.59 171.245 281.579 171.606 282.935 171.606C283.686 171.606 284.28 171.538 284.714 171.396C285.153 171.255 285.47 171.132 285.67 171.035L285.923 172.222C285.723 172.334 285.353 172.471 284.812 172.627C284.266 172.784 283.627 172.857 282.896 172.857C281.935 172.857 281.116 172.715 280.439 172.437C279.761 172.153 279.2 171.758 278.762 171.245C278.328 170.737 278.006 170.131 277.811 169.432C277.611 168.734 277.513 167.962 277.513 167.127ZM285.289 166.257C285.26 165.114 284.992 164.22 284.485 163.585C283.973 162.95 283.256 162.627 282.32 162.627C281.828 162.627 281.389 162.73 280.999 162.925C280.609 163.126 280.273 163.389 279.98 163.722C279.693 164.054 279.468 164.44 279.303 164.879C279.142 165.319 279.044 165.778 279.02 166.257H285.289ZM298.209 162.036C298.618 161.919 299.169 161.792 299.862 161.65C300.554 161.514 301.402 161.44 302.402 161.44C303.235 161.44 303.932 161.562 304.488 161.802C305.049 162.041 305.493 162.383 305.824 162.833C306.156 163.277 306.39 163.81 306.531 164.435C306.672 165.055 306.745 165.744 306.745 166.492V172.627H305.366V166.936C305.366 166.159 305.317 165.5 305.21 164.963C305.102 164.425 304.927 163.985 304.678 163.648C304.435 163.306 304.108 163.062 303.703 162.916C303.304 162.769 302.797 162.691 302.192 162.691C301.539 162.691 300.978 162.73 300.505 162.798C300.032 162.872 299.725 162.935 299.584 162.989V172.627H298.209V162.036ZM320.079 161.65H324.438V162.818H320.079V168.656C320.079 169.281 320.128 169.784 320.235 170.175C320.343 170.566 320.494 170.864 320.694 171.074C320.889 171.289 321.127 171.43 321.41 171.499C321.693 171.572 322.005 171.606 322.341 171.606C322.922 171.606 323.39 171.538 323.741 171.406C324.096 171.269 324.37 171.147 324.569 171.035L324.906 172.178C324.711 172.305 324.365 172.451 323.867 172.618C323.375 172.779 322.839 172.857 322.259 172.857C321.581 172.857 321.01 172.769 320.552 172.593C320.094 172.417 319.728 172.149 319.45 171.787C319.177 171.426 318.982 170.976 318.87 170.439C318.758 169.901 318.7 169.266 318.7 168.529V158.426L320.079 158.172V161.65ZM337.845 171.65C338.634 171.65 339.288 171.518 339.805 171.255C340.321 170.996 340.58 170.551 340.58 169.931C340.58 169.633 340.531 169.379 340.438 169.164C340.351 168.954 340.195 168.763 339.985 168.592C339.775 168.421 339.493 168.26 339.146 168.104C338.8 167.947 338.376 167.767 337.864 167.552C337.455 167.381 337.07 167.21 336.699 167.034C336.333 166.858 336.007 166.653 335.729 166.418C335.446 166.184 335.217 165.905 335.051 165.578C334.881 165.256 334.793 164.855 334.793 164.391C334.793 163.497 335.129 162.779 335.802 162.227C336.47 161.675 337.391 161.396 338.566 161.396C339.312 161.396 339.931 161.46 340.419 161.587C340.906 161.714 341.248 161.831 341.448 161.929L341.131 163.16C340.96 163.077 340.672 162.96 340.273 162.818C339.868 162.681 339.278 162.608 338.503 162.608C338.191 162.608 337.898 162.642 337.62 162.701C337.347 162.769 337.104 162.867 336.894 162.999C336.68 163.135 336.514 163.306 336.382 163.512C336.255 163.717 336.192 163.971 336.192 164.269C336.192 164.562 336.25 164.816 336.363 165.031C336.475 165.246 336.641 165.436 336.86 165.598C337.079 165.759 337.347 165.915 337.664 166.052C337.981 166.194 338.347 166.35 338.756 166.516C339.181 166.687 339.585 166.858 339.975 167.034C340.365 167.21 340.706 167.425 340.999 167.669C341.296 167.918 341.535 168.216 341.721 168.563C341.906 168.91 341.998 169.345 341.998 169.867C341.998 170.859 341.628 171.606 340.887 172.114C340.141 172.627 339.132 172.881 337.845 172.881C336.884 172.881 336.153 172.798 335.641 172.637C335.134 172.476 334.793 172.349 334.627 172.266L334.988 171.01C335.027 171.04 335.119 171.089 335.261 171.152C335.402 171.216 335.592 171.284 335.831 171.362C336.075 171.44 336.358 171.509 336.689 171.562C337.021 171.621 337.406 171.65 337.845 171.65Z" fill="white"/>
<path fill-rule="evenodd" clip-rule="evenodd" d="M187.585 199.857L180.988 206.306C185.971 207.068 194.507 208.343 203.668 209.442C213.75 210.658 224.588 211.655 234.758 212.329C244.932 212.998 254.444 213.335 264.955 213.414C275.471 213.487 286.991 213.296 297.448 212.754C307.911 212.212 317.31 211.318 326.032 210.145C334.749 208.978 342.788 207.532 351.33 205.627C359.871 203.721 368.91 201.357 377.164 199.081C385.418 196.804 392.882 194.616 399.556 193.028C406.23 191.445 412.114 190.468 418.286 189.857C424.459 189.252 430.918 189.017 437.358 189.086C443.804 189.149 450.224 189.511 456.036 190.072C461.852 190.634 467.054 191.401 472.295 192.349C477.531 193.297 484.185 194.708 486.784 195.246C489.382 195.788 489.1 195.724 490.118 195.925C488.076 193.497 486.033 191.064 484.98 189.804C483.927 188.548 483.864 188.465 483.834 188.421C483.8 188.382 483.8 188.382 484.853 187.42C485.906 186.457 488.012 184.533 490.118 182.608C489.1 182.403 489.382 182.466 486.784 181.929C484.185 181.391 477.531 179.975 472.295 179.032C467.054 178.084 461.852 177.317 456.036 176.751C450.224 176.189 443.804 175.827 437.358 175.764C430.918 175.7 424.459 175.935 418.286 176.54C412.114 177.146 406.23 178.123 399.556 179.711C392.882 181.294 385.418 183.487 377.164 185.764C368.91 188.04 359.871 190.4 351.33 192.305C342.788 194.21 334.749 195.656 326.032 196.829C317.31 197.996 307.911 198.89 297.448 199.432C286.991 199.975 275.471 200.165 264.955 200.092C254.444 200.019 244.932 199.677 234.758 199.007C224.588 198.338 213.75 197.337 203.668 196.125C194.507 195.021 185.971 193.746 180.988 192.989L187.585 199.857Z" fill="white" stroke="white" stroke-width="1.16031" stroke-miterlimit="22.9256"/>
</g>
<defs>
<clipPath id="clip0_518_13486">
<rect width="500" height="213.433" fill="white" transform="translate(0 0.283691)"/>
</clipPath>
</defs>
</svg>
