<svg width="80" height="80" viewBox="0 0 80 80" fill="none" xmlns="http://www.w3.org/2000/svg">
<g clip-path="url(#clip0_566_13758)">
<path fill-rule="evenodd" clip-rule="evenodd" d="M67.2727 13.3334H12.7273C9.39393 13.3334 6.66666 16.0606 6.66666 19.394V55.7576C6.66666 59.091 9.39393 61.8182 12.7273 61.8182H27.8788V64.8485C27.8788 66.5152 29.2424 67.8788 30.9091 67.8788H49.0909C50.7576 67.8788 52.1212 66.5152 52.1212 64.8485V61.8182H67.2727C70.6061 61.8182 73.303 59.091 73.303 55.7576L73.3333 19.394C73.3333 16.0303 70.6061 13.3334 67.2727 13.3334ZM64.2424 55.7576H15.7576C14.0909 55.7576 12.7273 54.394 12.7273 52.7273V22.4243C12.7273 20.7576 14.0909 19.394 15.7576 19.394H64.2424C65.9091 19.394 67.2727 20.7576 67.2727 22.4243V52.7273C67.2727 54.394 65.9091 55.7576 64.2424 55.7576ZM47.5151 40.2122L35.4545 47.1213C33.4242 48.2728 30.9091 46.7879 30.9091 44.4849V30.6667C30.9091 28.3334 33.4242 26.8788 35.4545 28.0303L47.5151 34.9394C49.5454 36.1213 49.5454 39.0303 47.5151 40.2122Z" fill="#431670"/>
</g>
<defs>
<clipPath id="clip0_566_13758">
<rect width="66.6667" height="54.5455" fill="white" transform="translate(6.66666 13.3334)"/>
</clipPath>
</defs>
</svg>
