<svg width="80" height="80" viewBox="0 0 80 80" fill="none" xmlns="http://www.w3.org/2000/svg">
<g clip-path="url(#clip0_566_13772)">
<path fill-rule="evenodd" clip-rule="evenodd" d="M8.70366 44.1069C-5.769 52.1988 33.2154 57.1136 41.9979 57.034V52.0993L49.2961 59.5279L41.9979 66.9697V62.3468C24.3482 63.0299 -17.1948 51.4559 7.7922 41.8518C8.02658 42.6013 8.31303 43.311 8.63855 43.9743L8.70366 44.1069ZM70.5461 28.8451C70.5461 27.114 70.8521 25.9002 71.4641 25.2104C72.076 24.5206 73.007 24.1757 74.2635 24.1757C74.8625 24.1757 75.3638 24.2553 75.7479 24.4012C76.132 24.5538 76.451 24.7461 76.6919 24.9915C76.9393 25.2303 77.1281 25.489 77.2714 25.7543C77.4146 26.0196 77.5253 26.3313 77.6099 26.6895C77.7792 27.366 77.8573 28.0757 77.8573 28.8186C77.8573 30.4701 77.5839 31.6839 77.0305 32.4467C76.4836 33.2094 75.5396 33.5941 74.1919 33.5941C73.4432 33.5941 72.8313 33.4681 72.369 33.2293C71.9068 32.9839 71.5227 32.6257 71.2297 32.1548C71.0149 31.8166 70.8456 31.3589 70.7284 30.7819C70.6047 30.1916 70.5461 29.5548 70.5461 28.8451ZM17.2323 30.291L11.3729 29.2298C11.8612 27.3329 12.7922 25.8737 14.1789 24.8589C15.5591 23.8441 17.5188 23.3334 20.0513 23.3334C22.9615 23.3334 25.0578 23.8839 26.3599 24.9915C27.6555 26.0992 28.3 27.4921 28.3 29.1635C28.3 30.1451 28.0331 31.0339 27.5123 31.8232C26.9849 32.6191 26.1971 33.3155 25.136 33.9125C25.9953 34.1314 26.6594 34.3834 27.1086 34.6752C27.8508 35.1395 28.4237 35.7564 28.8339 36.5125C29.244 37.2753 29.4524 38.1773 29.4524 39.2319C29.4524 40.5584 29.1138 41.8253 28.4367 43.0457C27.7531 44.2595 26.7766 45.1947 25.5005 45.8513C24.2245 46.5079 22.5448 46.8329 20.4615 46.8329C18.4367 46.8329 16.8352 46.5875 15.6698 46.1033C14.4979 45.6192 13.5344 44.9095 12.7792 43.9676C12.024 43.0324 11.4445 41.8518 11.0409 40.4324L17.2453 39.5901C17.4927 40.8635 17.8638 41.7523 18.3781 42.2498C18.886 42.7406 19.537 42.9926 20.3313 42.9926C21.1581 42.9926 21.8482 42.6809 22.4016 42.064C22.955 41.4472 23.2284 40.6181 23.2284 39.5834C23.2284 38.5288 22.9615 37.713 22.4341 37.136C21.9068 36.5589 21.1841 36.2671 20.2727 36.2671C19.7909 36.2671 19.1203 36.3865 18.274 36.6385L18.593 32.1217C18.9315 32.1747 19.1985 32.2013 19.3873 32.2013C20.188 32.2013 20.8586 31.936 21.3925 31.412C21.9263 30.888 22.1998 30.2712 22.1998 29.5482C22.1998 28.8518 21.9979 28.3012 21.5943 27.8967C21.1906 27.4854 20.6307 27.2798 19.9341 27.2798C19.205 27.2798 18.619 27.5053 18.1633 27.9497C17.7011 28.3875 17.3951 29.1701 17.2323 30.291ZM48.925 28.8186L42.7531 29.588C42.5904 28.7125 42.3234 28.1023 41.9458 27.7441C41.5617 27.3859 41.093 27.2069 40.5396 27.2069C39.537 27.2069 38.7557 27.7176 38.2024 28.7523C37.7987 29.5018 37.4927 31.087 37.3039 33.5212C38.0461 32.7518 38.8078 32.188 39.5826 31.8232C40.3638 31.4584 41.2688 31.2727 42.2909 31.2727C44.2831 31.2727 45.9628 31.9956 47.3365 33.4416C48.7102 34.8941 49.4003 36.7314 49.4003 38.9533C49.4003 40.4523 49.0552 41.8186 48.3586 43.0656C47.662 44.3059 46.6984 45.2477 45.468 45.8845C44.231 46.5212 42.688 46.8396 40.8261 46.8396C38.593 46.8396 36.8026 46.4549 35.455 45.6722C34.1073 44.8962 33.0266 43.6625 32.2193 41.9646C31.412 40.2666 31.0083 38.0181 31.0083 35.2125C31.0083 31.1135 31.8547 28.1089 33.5539 26.1987C35.2401 24.2885 37.5904 23.3334 40.5982 23.3334C42.3755 23.3334 43.7753 23.539 44.8039 23.9568C45.8326 24.3747 46.6919 24.9915 47.369 25.7875C48.0526 26.5966 48.5734 27.6048 48.925 28.8186ZM37.5122 38.9533C37.5122 40.187 37.8182 41.1487 38.4237 41.8452C39.0357 42.5416 39.7779 42.8931 40.6633 42.8931C41.4771 42.8931 42.1607 42.5748 42.7076 41.9447C43.2544 41.3146 43.5279 40.3727 43.5279 39.1191C43.5279 37.839 43.2414 36.8574 42.675 36.1875C42.1021 35.5176 41.399 35.1793 40.5526 35.1793C39.6932 35.1793 38.9641 35.5043 38.3781 36.161C37.7987 36.811 37.5122 37.7395 37.5122 38.9533ZM50.7219 34.987C50.7219 30.6691 51.4836 27.6446 53.0136 25.9201C54.537 24.1956 56.8677 23.3334 59.9862 23.3334C61.4901 23.3334 62.7206 23.5257 63.6841 23.8972C64.6477 24.2752 65.4354 24.766 66.0409 25.3696C66.6529 25.9732 67.1346 26.6099 67.4797 27.2732C67.8313 27.9431 68.1112 28.7191 68.326 29.6079C68.7427 31.2992 68.9511 33.0701 68.9511 34.914C68.9511 39.0395 68.2675 42.0508 66.8938 43.961C65.5266 45.8712 63.1698 46.8263 59.8169 46.8263C57.9419 46.8263 56.425 46.5212 55.2662 45.911C54.1073 45.3008 53.1633 44.4054 52.4211 43.2248C51.8872 42.389 51.4641 41.2482 51.1646 39.7957C50.8716 38.3497 50.7219 36.7446 50.7219 34.987ZM56.8612 35.0002C56.8612 37.8921 57.1086 39.8686 57.6164 40.9299C58.1177 41.9911 58.8469 42.5151 59.8039 42.5151C60.4354 42.5151 60.9758 42.2896 61.438 41.8452C61.9003 41.3941 62.2388 40.6778 62.4537 39.7094C62.675 38.7344 62.7792 37.2222 62.7792 35.1661C62.7792 32.1482 62.5318 30.1252 62.024 29.0773C61.5227 28.0426 60.7675 27.5186 59.7649 27.5186C58.7362 27.5186 58.0005 28.0492 57.5383 29.1038C57.0891 30.1717 56.8612 32.1349 56.8612 35.0002ZM73.007 28.8518C73.007 30.0125 73.1047 30.8018 73.3065 31.2263C73.5083 31.6507 73.8013 31.863 74.1854 31.863C74.4393 31.863 74.6542 31.7768 74.843 31.5911C75.0253 31.412 75.162 31.1268 75.2531 30.7354C75.3378 30.3441 75.3833 29.7405 75.3833 28.9181C75.3833 27.7109 75.2857 26.8951 75.0839 26.4773C74.882 26.0594 74.5826 25.8538 74.1789 25.8538C73.7688 25.8538 73.4693 26.066 73.287 26.4905C73.0982 26.915 73.007 27.7043 73.007 28.8518ZM71.1581 43.3839C78.0331 46.9457 76.3925 51.9998 64.218 55.0707C60.7675 55.9396 56.8677 56.7289 52.5904 57.0539V61.0667C57.3495 60.7284 61.7766 59.6141 65.6503 58.659C83.9576 54.1421 83.3195 46.0768 71.744 41.5268C71.5813 42.1834 71.3859 42.8003 71.1581 43.3839Z" fill="#431670"/>
</g>
<defs>
<clipPath id="clip0_566_13772">
<rect width="80" height="43.6364" fill="white" transform="translate(0 23.3334)"/>
</clipPath>
</defs>
</svg>
