<svg width="20" height="19" viewBox="0 0 20 19" fill="none" xmlns="http://www.w3.org/2000/svg">
<path fill-rule="evenodd" clip-rule="evenodd" d="M3.25 0.600098C2.00736 0.600098 1 1.60746 1 2.8501V4.65602C1 12.3604 7.24563 18.606 14.95 18.606H16.75C17.9926 18.606 19 17.5987 19 16.356V14.0475C19 13.079 18.3803 12.2192 17.4615 11.9129L14.5966 10.9579C13.634 10.6371 12.5758 11.0002 12.013 11.8444L11.3569 12.8285C11.2443 12.9974 11.0327 13.07 10.8402 13.0058L9.4673 12.5482C8.34493 12.1741 7.4838 11.2638 7.17251 10.1224L6.60816 8.05308C6.54532 7.82267 6.67343 7.5833 6.9 7.50777L7.4423 7.32701C8.42979 6.99784 9.03106 5.9992 8.85993 4.97246L8.44456 2.4802C8.26374 1.39528 7.32506 0.600098 6.22517 0.600098H3.25ZM1.9 2.8501V4.65602C1.9 11.8633 7.74268 17.706 14.95 17.706H16.75C17.4956 17.706 18.1 17.1016 18.1 16.356V14.0475C18.1 13.4664 17.7282 12.9505 17.1769 12.7667L14.312 11.8118C13.7344 11.6193 13.0995 11.8371 12.7618 12.3436L12.1057 13.3277C11.768 13.8343 11.1331 14.0521 10.5556 13.8596L9.1827 13.402C7.77485 12.9327 6.69469 11.7909 6.30422 10.3592L5.73987 8.28989C5.55135 7.59864 5.93567 6.88053 6.6154 6.65396L7.1577 6.47319C7.72505 6.28407 8.0705 5.71032 7.97218 5.12041L7.5568 2.62816C7.44831 1.97721 6.8851 1.5001 6.22517 1.5001H3.25C2.50442 1.5001 1.9 2.10451 1.9 2.8501ZM16.5636 2.4001H14.05C13.8015 2.4001 13.6 2.19863 13.6 1.9501C13.6 1.70157 13.8015 1.5001 14.05 1.5001H17.65C17.8985 1.5001 18.1 1.70157 18.1 1.9501V5.5501C18.1 5.79863 17.8985 6.0001 17.65 6.0001C17.4015 6.0001 17.2 5.79863 17.2 5.5501V3.03649L12.5682 7.6683C12.3925 7.84403 12.1075 7.84403 11.9318 7.6683C11.7561 7.49256 11.7561 7.20764 11.9318 7.0319L16.5636 2.4001Z" fill="#9A51E3"/>
<path d="M17.4615 11.9129L17.3825 12.1501L17.4615 11.9129ZM14.5966 10.9579L14.6756 10.7208L14.5966 10.9579ZM12.013 11.8444L11.8049 11.7057L12.013 11.8444ZM11.3569 12.8285L11.1489 12.6898L11.3569 12.8285ZM10.8402 13.0058L10.9192 12.7686H10.9192L10.8402 13.0058ZM9.4673 12.5482L9.38825 12.7854L9.4673 12.5482ZM7.17251 10.1224L6.93132 10.1882L7.17251 10.1224ZM6.60816 8.05308L6.84935 7.9873V7.9873L6.60816 8.05308ZM6.9 7.50777L6.82094 7.2706H6.82094L6.9 7.50777ZM7.4423 7.32701L7.52136 7.56418H7.52136L7.4423 7.32701ZM8.85993 4.97246L9.10653 4.93136L8.85993 4.97246ZM8.44456 2.4802L8.69116 2.4391H8.69116L8.44456 2.4802ZM17.1769 12.7667L17.0979 13.0039L17.1769 12.7667ZM14.312 11.8118L14.391 11.5746L14.312 11.8118ZM12.7618 12.3436L12.5538 12.205L12.7618 12.3436ZM12.1057 13.3277L12.3137 13.4664V13.4664L12.1057 13.3277ZM10.5556 13.8596L10.4765 14.0968L10.5556 13.8596ZM9.1827 13.402L9.26175 13.1648L9.1827 13.402ZM6.30422 10.3592L6.54541 10.2934L6.30422 10.3592ZM5.73987 8.28989L5.49868 8.35567L5.73987 8.28989ZM6.6154 6.65396L6.69445 6.89113L6.6154 6.65396ZM7.1577 6.47319L7.23675 6.71036H7.23675L7.1577 6.47319ZM7.97218 5.12041L8.21878 5.07931L7.97218 5.12041ZM7.5568 2.62816L7.8034 2.58706H7.8034L7.5568 2.62816ZM16.5636 2.4001L16.7404 2.57687L17.1672 2.1501H16.5636V2.4001ZM17.2 3.03649H17.45V2.43294L17.0232 2.85972L17.2 3.03649ZM12.5682 7.6683L12.3914 7.49152V7.49152L12.5682 7.6683ZM11.9318 7.6683L11.755 7.84507V7.84507L11.9318 7.6683ZM11.9318 7.0319L11.755 6.85512V6.85512L11.9318 7.0319ZM1.25 2.8501C1.25 1.74553 2.14543 0.850098 3.25 0.850098V0.350098C1.86929 0.350098 0.75 1.46939 0.75 2.8501H1.25ZM1.25 4.65602V2.8501H0.75V4.65602H1.25ZM14.95 18.356C7.3837 18.356 1.25 12.2223 1.25 4.65602H0.75C0.75 12.4985 7.10756 18.856 14.95 18.856V18.356ZM16.75 18.356H14.95V18.856H16.75V18.356ZM18.75 16.356C18.75 17.4606 17.8546 18.356 16.75 18.356V18.856C18.1307 18.856 19.25 17.7367 19.25 16.356H18.75ZM18.75 14.0475V16.356H19.25V14.0475H18.75ZM17.3825 12.1501C18.1991 12.4223 18.75 13.1866 18.75 14.0475H19.25C19.25 12.9714 18.5614 12.016 17.5406 11.6758L17.3825 12.1501ZM14.5175 11.1951L17.3825 12.1501L17.5406 11.6758L14.6756 10.7208L14.5175 11.1951ZM12.221 11.9831C12.7213 11.2327 13.6619 10.9099 14.5175 11.1951L14.6756 10.7208C13.6061 10.3643 12.4303 10.7677 11.8049 11.7057L12.221 11.9831ZM11.5649 12.9672L12.221 11.9831L11.8049 11.7057L11.1489 12.6898L11.5649 12.9672ZM10.7611 13.243C11.0606 13.3428 11.3898 13.2298 11.5649 12.9672L11.1489 12.6898C11.0988 12.7649 11.0048 12.7972 10.9192 12.7686L10.7611 13.243ZM9.38825 12.7854L10.7611 13.243L10.9192 12.7686L9.54636 12.311L9.38825 12.7854ZM6.93132 10.1882C7.2646 11.4102 8.18658 12.3848 9.38825 12.7854L9.54636 12.311C8.50329 11.9633 7.703 11.1173 7.4137 10.0566L6.93132 10.1882ZM6.36697 8.11886L6.93132 10.1882L7.4137 10.0566L6.84935 7.9873L6.36697 8.11886ZM6.82094 7.2706C6.46849 7.38808 6.26922 7.76044 6.36697 8.11886L6.84935 7.9873C6.82142 7.8849 6.87836 7.77851 6.97906 7.74494L6.82094 7.2706ZM7.36325 7.08983L6.82094 7.2706L6.97906 7.74494L7.52136 7.56418L7.36325 7.08983ZM8.61333 5.01355C8.76423 5.91895 8.23403 6.79957 7.36325 7.08983L7.52136 7.56418C8.62555 7.19611 9.29788 6.07944 9.10653 4.93136L8.61333 5.01355ZM8.19796 2.5213L8.61333 5.01355L9.10653 4.93136L8.69116 2.4391L8.19796 2.5213ZM6.22517 0.850098C7.20285 0.850098 8.03723 1.55692 8.19796 2.5213L8.69116 2.4391C8.49024 1.23363 7.44727 0.350098 6.22517 0.350098V0.850098ZM3.25 0.850098H6.22517V0.350098H3.25V0.850098ZM2.15 4.65602V2.8501H1.65V4.65602H2.15ZM14.95 17.456C7.88075 17.456 2.15 11.7253 2.15 4.65602H1.65C1.65 12.0014 7.60461 17.956 14.95 17.956V17.456ZM16.75 17.456H14.95V17.956H16.75V17.456ZM17.85 16.356C17.85 16.9635 17.3575 17.456 16.75 17.456V17.956C17.6337 17.956 18.35 17.2397 18.35 16.356H17.85ZM17.85 14.0475V16.356H18.35V14.0475H17.85ZM17.0979 13.0039C17.547 13.1536 17.85 13.574 17.85 14.0475H18.35C18.35 13.3588 17.9093 12.7474 17.256 12.5296L17.0979 13.0039ZM14.2329 12.0489L17.0979 13.0039L17.256 12.5296L14.391 11.5746L14.2329 12.0489ZM12.9698 12.4823C13.245 12.0696 13.7623 11.8921 14.2329 12.0489L14.391 11.5746C13.7065 11.3464 12.954 11.6046 12.5538 12.205L12.9698 12.4823ZM12.3137 13.4664L12.9698 12.4823L12.5538 12.205L11.8977 13.1891L12.3137 13.4664ZM10.4765 14.0968C11.161 14.325 11.9135 14.0668 12.3137 13.4664L11.8977 13.1891C11.6226 13.6018 11.1052 13.7793 10.6346 13.6225L10.4765 14.0968ZM9.10364 13.6392L10.4765 14.0968L10.6346 13.6225L9.26175 13.1648L9.10364 13.6392ZM6.06303 10.425C6.47549 11.9373 7.6165 13.1435 9.10364 13.6392L9.26175 13.1648C7.93321 12.722 6.91389 11.6445 6.54541 10.2934L6.06303 10.425ZM5.49868 8.35567L6.06303 10.425L6.54541 10.2934L5.98106 8.22411L5.49868 8.35567ZM6.53634 6.41679C5.73074 6.68532 5.27525 7.53642 5.49868 8.35567L5.98106 8.22411C5.82745 7.66087 6.1406 7.07574 6.69445 6.89113L6.53634 6.41679ZM7.07864 6.23602L6.53634 6.41679L6.69445 6.89113L7.23675 6.71036L7.07864 6.23602ZM7.72558 5.16151C7.80367 5.63007 7.52928 6.0858 7.07864 6.23602L7.23675 6.71036C7.92081 6.48234 8.33732 5.79056 8.21878 5.07931L7.72558 5.16151ZM7.3102 2.66926L7.72558 5.16151L8.21878 5.07931L7.8034 2.58706L7.3102 2.66926ZM6.22517 1.7501C6.76289 1.7501 7.2218 2.13885 7.3102 2.66926L7.8034 2.58706C7.67482 1.81556 7.00731 1.2501 6.22517 1.2501V1.7501ZM3.25 1.7501H6.22517V1.2501H3.25V1.7501ZM2.15 2.8501C2.15 2.24258 2.64249 1.7501 3.25 1.7501V1.2501C2.36634 1.2501 1.65 1.96644 1.65 2.8501H2.15ZM14.05 2.6501H16.5636V2.1501H14.05V2.6501ZM13.35 1.9501C13.35 2.3367 13.6634 2.6501 14.05 2.6501V2.1501C13.9395 2.1501 13.85 2.06055 13.85 1.9501H13.35ZM14.05 1.2501C13.6634 1.2501 13.35 1.5635 13.35 1.9501H13.85C13.85 1.83964 13.9395 1.7501 14.05 1.7501V1.2501ZM17.65 1.2501H14.05V1.7501H17.65V1.2501ZM18.35 1.9501C18.35 1.5635 18.0366 1.2501 17.65 1.2501V1.7501C17.7605 1.7501 17.85 1.83964 17.85 1.9501H18.35ZM18.35 5.5501V1.9501H17.85V5.5501H18.35ZM17.65 6.2501C18.0366 6.2501 18.35 5.9367 18.35 5.5501H17.85C17.85 5.66055 17.7605 5.7501 17.65 5.7501V6.2501ZM16.95 5.5501C16.95 5.9367 17.2634 6.2501 17.65 6.2501V5.7501C17.5395 5.7501 17.45 5.66056 17.45 5.5501H16.95ZM16.95 3.03649V5.5501H17.45V3.03649H16.95ZM12.745 7.84507L17.3768 3.21327L17.0232 2.85972L12.3914 7.49152L12.745 7.84507ZM11.755 7.84507C12.0284 8.11844 12.4716 8.11844 12.745 7.84507L12.3914 7.49152C12.3133 7.56962 12.1867 7.56962 12.1086 7.49152L11.755 7.84507ZM11.755 6.85512C11.4817 7.12849 11.4817 7.57171 11.755 7.84507L12.1086 7.49152C12.0305 7.41341 12.0305 7.28678 12.1086 7.20868L11.755 6.85512ZM16.3868 2.22332L11.755 6.85512L12.1086 7.20868L16.7404 2.57687L16.3868 2.22332Z" fill="#9A51E3"/>
</svg>
